<?xml version="1.0" encoding="UTF-8" standalone="no"?>
<svg
   width="22.1404"
   height="22.1404"
   viewBox="0 0 22.1404 22.1404"
   fill="none"
   version="1.1"
   id="svg4"
   sodipodi:docname="globe.svg"
   inkscape:version="1.2.1 (9c6d41e410, 2022-07-14)"
   xmlns:inkscape="http://www.inkscape.org/namespaces/inkscape"
   xmlns:sodipodi="http://sodipodi.sourceforge.net/DTD/sodipodi-0.dtd"
   xmlns="http://www.w3.org/2000/svg"
   xmlns:svg="http://www.w3.org/2000/svg">
  <defs
     id="defs8" />
  <sodipodi:namedview
     id="namedview6"
     pagecolor="#ffffff"
     bordercolor="#000000"
     borderopacity="0.25"
     inkscape:showpageshadow="2"
     inkscape:pageopacity="0.0"
     inkscape:pagecheckerboard="0"
     inkscape:deskcolor="#d1d1d1"
     showgrid="false"
     inkscape:zoom="34"
     inkscape:cx="11.5"
     inkscape:cy="11.5"
     inkscape:window-width="1920"
     inkscape:window-height="1043"
     inkscape:window-x="0"
     inkscape:window-y="0"
     inkscape:window-maximized="1"
     inkscape:current-layer="svg4" />
  <path
     d="m 11.0702,22.1404 c -1.54984,0 -2.99819,-0.2906 -4.34506,-0.8718 C 5.37827,20.6874 4.20667,19.8987 3.21035,18.9023 2.21404,17.906 1.4299,16.7298 0.85794,15.3737 0.28598,14.0176 0,12.5647 0,11.0148 0,9.46501 0.28598,8.02127 0.85794,6.68363 1.4299,5.34598 2.21404,4.179 3.21035,3.18268 4.20667,2.18636 5.37827,1.40684 6.72514,0.844102 8.07201,0.281367 9.52036,0 11.0702,0 c 1.5498,0 2.9982,0.281367 4.345,0.844102 1.3469,0.562738 2.5185,1.342258 3.5148,2.338578 0.9963,0.99632 1.7805,2.1633 2.3524,3.50095 0.572,1.33764 0.858,2.78138 0.858,4.33117 0,1.5499 -0.286,3.0028 -0.858,4.3589 -0.5719,1.3561 -1.3561,2.5323 -2.3524,3.5286 -0.9963,0.9964 -2.1679,1.7851 -3.5148,2.3663 -1.3468,0.5812 -2.7952,0.8718 -4.345,0.8718 z M 15.4429,6.91887 h 4.1513 C 18.9854,5.6458 18.1505,4.5849 17.0896,3.73619 16.0287,2.88747 14.8064,2.28784 13.4226,1.93728 c 0.4613,0.68266 0.8533,1.42068 1.1762,2.21404 0.3229,0.79336 0.6043,1.71588 0.8441,2.76755 z m -7.02956,0 H 13.7824 C 13.5794,5.941 13.2381,4.99542 12.7584,4.08213 12.2787,3.16884 11.7159,2.36164 11.0702,1.66053 10.4798,2.15869 9.98162,2.81367 9.57571,3.62549 9.1698,4.4373 8.78235,5.53509 8.41334,6.91887 Z M 1.99263,13.5333 h 4.4004 C 6.33768,13.0351 6.30539,12.5877 6.29617,12.191 6.28694,11.7944 6.28233,11.4023 6.28233,11.0148 c 0,-0.4612 0.00923,-0.8717 0.02768,-1.23152 C 6.32846,9.4235 6.36536,9.0222 6.42071,8.57939 H 1.99263 C 1.86348,9.0222 1.77584,9.41888 1.72972,9.76944 1.68359,10.12 1.66053,10.5351 1.66053,11.0148 c 0,0.4797 0.02306,0.9087 0.06919,1.2869 0.04612,0.3783 0.13376,0.7888 0.26291,1.2316 z m 6.72514,6.6698 C 8.25651,19.502 7.85983,18.7455 7.52773,17.9337 7.19562,17.1219 6.91887,16.2086 6.69746,15.1938 H 2.54614 c 0.70112,1.31 1.51293,2.3386 2.43544,3.0858 0.92252,0.7473 2.16792,1.3884 3.73619,1.9235 z M 2.54614,6.91887 h 4.179 C 6.92809,5.92255 7.1864,5.03232 7.50005,4.24818 7.81371,3.46405 8.21039,2.70297 8.6901,1.96496 7.30632,2.31551 6.09783,2.90592 5.06461,3.73619 4.03139,4.56645 3.1919,5.62735 2.54614,6.91887 Z M 11.0702,20.5352 c 0.6457,-0.6642 1.1854,-1.4253 1.619,-2.2832 0.4336,-0.858 0.7888,-1.8773 1.0655,-3.0582 H 8.41334 c 0.25831,1.1071 0.60425,2.1034 1.03783,2.989 0.43358,0.8856 0.97323,1.6697 1.61903,2.3524 z M 8.10891,13.5333 h 5.95019 c 0.0738,-0.572 0.12,-1.0378 0.1384,-1.3976 0.0185,-0.3598 0.0277,-0.7334 0.0277,-1.1209 0,-0.369 -0.0092,-0.7241 -0.0277,-1.06547 C 14.1791,9.608 14.1329,9.15135 14.0591,8.57939 H 8.10891 C 8.03511,9.15135 7.98898,9.608 7.97053,9.94933 7.95208,10.2907 7.94286,10.6458 7.94286,11.0148 c 0,0.3875 0.00922,0.7611 0.02767,1.1209 0.01845,0.3598 0.06458,0.8256 0.13838,1.3976 z m 5.34139,6.6421 c 1.3284,-0.4243 2.5231,-1.0609 3.584,-1.9096 1.0608,-0.8487 1.9142,-1.8727 2.5599,-3.072 h -4.1236 c -0.2399,0.9963 -0.5212,1.9004 -0.8441,2.7122 -0.3229,0.8118 -0.715,1.5683 -1.1762,2.2694 z m 2.2694,-6.6421 h 4.428 c 0.1292,-0.4428 0.2168,-0.8533 0.263,-1.2316 0.0461,-0.3782 0.0691,-0.8072 0.0691,-1.2869 0,-0.4797 -0.023,-0.8948 -0.0691,-1.24536 C 20.3645,9.41888 20.2769,9.0222 20.1477,8.57939 h -4.4004 c 0.0554,0.64577 0.0923,1.13931 0.1107,1.48061 0.0185,0.3414 0.0277,0.6596 0.0277,0.9548 0,0.4059 -0.0138,0.7888 -0.0415,1.1486 -0.0277,0.3597 -0.0692,0.8164 -0.1245,1.3699 z"
     fill="#ffffff"
     id="path2" />
</svg>
