<svg width="23" height="23" viewBox="0 0 23 23" fill="none" xmlns="http://www.w3.org/2000/svg">
<path d="M11.0702 22.1404C9.52036 22.1404 8.07201 21.8498 6.72514 21.2686C5.37827 20.6874 4.20667 19.8987 3.21035 18.9023C2.21404 17.906 1.4299 16.7298 0.85794 15.3737C0.28598 14.0176 0 12.5647 0 11.0148C0 9.46501 0.28598 8.02127 0.85794 6.68363C1.4299 5.34598 2.21404 4.179 3.21035 3.18268C4.20667 2.18636 5.37827 1.40684 6.72514 0.844102C8.07201 0.281367 9.52036 0 11.0702 0C12.62 0 14.0684 0.281367 15.4152 0.844102C16.7621 1.40684 17.9337 2.18636 18.93 3.18268C19.9263 4.179 20.7105 5.34598 21.2824 6.68363C21.8544 8.02127 22.1404 9.46501 22.1404 11.0148C22.1404 12.5647 21.8544 14.0176 21.2824 15.3737C20.7105 16.7298 19.9263 17.906 18.93 18.9023C17.9337 19.8987 16.7621 20.6874 15.4152 21.2686C14.0684 21.8498 12.62 22.1404 11.0702 22.1404ZM15.4429 6.91887H19.5942C18.9854 5.6458 18.1505 4.5849 17.0896 3.73619C16.0287 2.88747 14.8064 2.28784 13.4226 1.93728C13.8839 2.61994 14.2759 3.35796 14.5988 4.15132C14.9217 4.94468 15.2031 5.8672 15.4429 6.91887ZM8.41334 6.91887H13.7824C13.5794 5.941 13.2381 4.99542 12.7584 4.08213C12.2787 3.16884 11.7159 2.36164 11.0702 1.66053C10.4798 2.15869 9.98162 2.81367 9.57571 3.62549C9.1698 4.4373 8.78235 5.53509 8.41334 6.91887ZM1.99263 13.5333H6.39303C6.33768 13.0351 6.30539 12.5877 6.29617 12.191C6.28694 11.7944 6.28233 11.4023 6.28233 11.0148C6.28233 10.5536 6.29156 10.1431 6.31001 9.78328C6.32846 9.4235 6.36536 9.0222 6.42071 8.57939H1.99263C1.86348 9.0222 1.77584 9.41888 1.72972 9.76944C1.68359 10.12 1.66053 10.5351 1.66053 11.0148C1.66053 11.4945 1.68359 11.9235 1.72972 12.3017C1.77584 12.68 1.86348 13.0905 1.99263 13.5333ZM8.71777 20.2031C8.25651 19.502 7.85983 18.7455 7.52773 17.9337C7.19562 17.1219 6.91887 16.2086 6.69746 15.1938H2.54614C3.24726 16.5038 4.05907 17.5324 4.98158 18.2796C5.9041 19.0269 7.1495 19.668 8.71777 20.2031ZM2.54614 6.91887H6.72514C6.92809 5.92255 7.1864 5.03232 7.50005 4.24818C7.81371 3.46405 8.21039 2.70297 8.6901 1.96496C7.30632 2.31551 6.09783 2.90592 5.06461 3.73619C4.03139 4.56645 3.1919 5.62735 2.54614 6.91887ZM11.0702 20.5352C11.7159 19.871 12.2556 19.1099 12.6892 18.252C13.1228 17.394 13.478 16.3747 13.7547 15.1938H8.41334C8.67165 16.3009 9.01759 17.2972 9.45117 18.1828C9.88475 19.0684 10.4244 19.8525 11.0702 20.5352ZM8.10891 13.5333H14.0591C14.1329 12.9613 14.1791 12.4955 14.1975 12.1357C14.216 11.7759 14.2252 11.4023 14.2252 11.0148C14.2252 10.6458 14.216 10.2907 14.1975 9.94933C14.1791 9.608 14.1329 9.15135 14.0591 8.57939H8.10891C8.03511 9.15135 7.98898 9.608 7.97053 9.94933C7.95208 10.2907 7.94286 10.6458 7.94286 11.0148C7.94286 11.4023 7.95208 11.7759 7.97053 12.1357C7.98898 12.4955 8.03511 12.9613 8.10891 13.5333ZM13.4503 20.1754C14.7787 19.7511 15.9734 19.1145 17.0343 18.2658C18.0951 17.4171 18.9485 16.3931 19.5942 15.1938H15.4706C15.2307 16.1901 14.9494 17.0942 14.6265 17.906C14.3036 18.7178 13.9115 19.4743 13.4503 20.1754ZM15.7197 13.5333H20.1477C20.2769 13.0905 20.3645 12.68 20.4107 12.3017C20.4568 11.9235 20.4798 11.4945 20.4798 11.0148C20.4798 10.5351 20.4568 10.12 20.4107 9.76944C20.3645 9.41888 20.2769 9.0222 20.1477 8.57939H15.7473C15.8027 9.22516 15.8396 9.7187 15.858 10.06C15.8765 10.4014 15.8857 10.7196 15.8857 11.0148C15.8857 11.4207 15.8719 11.8036 15.8442 12.1634C15.8165 12.5231 15.775 12.9798 15.7197 13.5333Z" fill="white"/>
</svg>
