<?xml version="1.0" encoding="UTF-8" standalone="no"?>
<svg
   width="320"
   height="40"
   viewBox="0 0 320 40"
   fill="none"
   version="1.1"
   id="svg6"
   sodipodi:docname="greatload.svg"
   inkscape:version="1.2.1 (9c6d41e410, 2022-07-14)"
   xmlns:inkscape="http://www.inkscape.org/namespaces/inkscape"
   xmlns:sodipodi="http://sodipodi.sourceforge.net/DTD/sodipodi-0.dtd"
   xmlns="http://www.w3.org/2000/svg"
   xmlns:svg="http://www.w3.org/2000/svg">
  <defs
     id="defs10" />
  <sodipodi:namedview
     id="namedview8"
     pagecolor="#ffffff"
     bordercolor="#000000"
     borderopacity="0.25"
     inkscape:showpageshadow="2"
     inkscape:pageopacity="0.0"
     inkscape:pagecheckerboard="0"
     inkscape:deskcolor="#d1d1d1"
     showgrid="false"
     inkscape:zoom="4.240625"
     inkscape:cx="159.88209"
     inkscape:cy="20.044215"
     inkscape:window-width="1920"
     inkscape:window-height="1043"
     inkscape:window-x="0"
     inkscape:window-y="0"
     inkscape:window-maximized="1"
     inkscape:current-layer="svg6" />
  <path
     d="M 0.03857204,39.405273 C -0.25225868,32.669668 -1.4289424,24.928742 1.3993591,18.589709 4.1785923,12.360658 12.550414,10.19243 17.562111,14.555271 c 2.75054,2.394372 4.931817,5.448748 6.359575,8.887487 1.53863,3.705857 2.380228,7.833859 5.49868,10.524712 8.365093,7.218163 21.283894,-1.069731 26.799171,-8.098134 3.120451,-3.976552 5.831501,-8.27937 8.775694,-12.395795 2.237264,-3.127997 4.975007,-7.0444319 8.858975,-7.9227613 9.79365,-2.2147361 14.585001,12.6125723 19.162103,19.0029673 5.935076,8.286316 13.521751,16.358244 24.105221,11.401736 11.41226,-5.344554 15.23534,-17.866014 24.60509,-25.376238 2.63037,-2.1084366 5.97257,-4.4064443 9.33176,-4.9115252 3.52316,-0.5299824 4.21199,2.9273013 4.66488,5.8178082 0.77682,4.957034 0.88479,10.536815 3.22123,15.056232 2.97729,5.755333 9.52672,8.048247 15.30233,8.946005 6.2325,0.968694 12.78393,0.395308 17.9127,-3.800579 5.06679,-4.145894 7.99208,-10.487244 12.63597,-15.08549 4.22899,-4.188836 11.2683,-9.4293528 17.5228,-8.4197383 3.91406,0.6317143 4.25598,6.3921523 5.30472,9.4430553 3.82109,11.115043 17.40483,21.848987 29.07603,16.751763 5.57566,-2.435102 7.78013,-9.620849 10.38651,-14.734596 3.24722,-6.371345 7.74214,-13.3946012 14.1636,-16.6056382 5.29573,-2.64819323 8.55395,-0.2588026 9.71967,5.262356 1.56662,7.4200902 1.6456,20.5739802 7.4982,26.0778782 3.81108,2.987229 7.31724,4.527521 10.4175,5.028497 h 4.46993 c -1.37168,0.240279 -2.86632,0.259119 -4.46993,0 z"
     fill="#ffffff"
     id="path2"
     style="stroke-width:1.02578" />
  <path
     d="m 322.46126,31.687186 c -2.46841,6.841694 -11.63121,12.381166 -23.99424,2.68959 -5.8526,-5.503898 -5.93158,-18.657788 -7.4982,-26.0778782 -1.16572,-5.5211586 -4.42394,-7.91054923 -9.71967,-5.262356 -6.42146,3.211037 -10.91638,10.2342932 -14.1636,16.6056382 -2.60638,5.113747 -4.81085,12.299494 -10.38651,14.734596 -11.6712,5.097224 -25.25494,-5.63672 -29.07603,-16.751763 -1.04874,-3.050903 -1.39066,-8.811341 -5.30472,-9.4430553 -6.2545,-1.0096145 -13.29281,4.2309023 -17.5228,8.4197383 -4.64389,4.598246 -7.56918,10.939596 -12.63597,15.08549 -5.12877,4.195887 -11.6802,4.769273 -17.9127,3.800579 -5.77561,-0.897758 -12.32504,-3.190672 -15.30233,-8.946005 -2.33644,-4.519417 -2.44441,-10.099198 -3.22123,-15.056232 -0.45289,-2.8905069 -1.14172,-6.3477906 -4.66488,-5.8178082 -3.35919,0.5050809 -6.70139,2.8030886 -9.33176,4.9115252 -9.36975,7.510224 -13.19283,20.031684 -24.60509,25.376238 C 106.53806,40.911991 98.951385,32.840063 93.016309,24.553747 88.439207,18.163352 83.647856,3.3360436 73.854206,5.5507797 69.970238,6.4291091 67.232495,10.345544 64.995231,13.473541 62.051038,17.589966 59.339988,21.892784 56.219537,25.869336 50.70426,32.897739 37.785459,41.185633 29.420366,33.96747 26.301914,31.276617 25.460316,27.148615 23.921686,23.442758 22.493928,20.004019 20.312651,16.949643 17.562111,14.555271 12.550414,10.19243 4.1785923,12.360658 1.3993591,18.589709 -1.4289424,24.928742 -0.25225868,32.669668 0.03857204,39.405273 H 318.9621"
     stroke="#ffffff"
     stroke-width="3"
     stroke-linecap="round"
     id="path4" />
</svg>
