<svg width="55" height="155" viewBox="0 0 55 155" fill="none" xmlns="http://www.w3.org/2000/svg">
<path d="M13 28C12.4805 33.1948 13.6555 47.4169 22.7778 43.6667C27.7949 41.6041 29.7411 34.661 26.8889 30.1667C21.7324 22.0413 14.7908 26.4329 8 28" stroke="black" stroke-width="3" stroke-linecap="round"/>
<path d="M21 56C23.7925 51.6561 26.4838 48 31.9444 48C36.3251 48 33.8224 44.4027 35.1111 40.4444C36.1515 37.2488 37.535 34.1157 40.8889 32.8333C44.4463 31.4732 43.185 33.7476 41.4444 31.3333C35.951 23.7134 47.6371 18.2376 53 17" stroke="black" stroke-width="3" stroke-linecap="round"/>
<path d="M6.00007 40C5.92644 36.9079 6.27336 33.086 2.66673 32.0556C1.4165 31.6983 5.50747 32.1732 6.50007 31.3333C8.92825 29.2787 8.16707 25.1933 11.4445 24.2222C21.9075 21.1221 23.3541 11.4645 25.0001 2" stroke="black" stroke-width="3" stroke-linecap="round"/>
<path d="M9 86C9 93.422 9.95491 97.6583 14.0556 88.9444C15.1516 86.6154 15.8791 83.9085 17 81.6666C18.457 78.7526 16.93 88.4487 18.4444 91.3333C19.8538 94.0177 24.1308 86.7711 24.7778 85.9444C26.5368 83.6968 25.989 89.0626 27.1667 90.1666C29.0489 91.9312 30.9168 88.3646 33 89.8888C36.4109 92.3846 37.8105 93.5236 42 93" stroke="black" stroke-width="3" stroke-linecap="round"/>
<path d="M17 137C18.4549 142.456 19 147.424 19 153" stroke="black" stroke-width="3" stroke-linecap="round"/>
<path d="M20.0001 130C15.5738 118.934 16.8754 143.751 20.389 136.333C21.6773 133.614 21.6692 128.504 20.0001 126" stroke="black" stroke-width="3" stroke-linecap="round"/>
<path d="M25 140C26.3022 138.075 28.6312 135.422 26 133.778C24.5771 132.888 27.8101 132.139 28.4445 131.389C30.3731 129.11 29.8601 124.108 27.5556 122.222C26.7783 121.586 23.72 122.501 24.5556 121.944C28.7885 119.122 21.3956 112.482 17.2223 114C14.9207 114.837 9.51972 114.767 8.00004 116.111C5.13067 118.649 4.82917 124.169 5.00004 127.555C5.18848 131.29 6.2359 136.068 8.00004 139.444C13.7 150.352 7.47488 137.001 13 144" stroke="black" stroke-width="3" stroke-linecap="round"/>
</svg>
