<svg width="69" height="179" viewBox="0 0 69 179" fill="none" xmlns="http://www.w3.org/2000/svg">
<path d="M2 35.0001C11.6978 29.6758 13.8317 20.7247 19.9444 12.1667C23.1605 7.66429 30.4978 -4.18546 33.5556 7.11119C34.9779 12.3661 40.2669 38.4355 32.6667 41.2223C25.4715 43.8605 16.4748 39.5085 9 42.0001" stroke="black" stroke-width="3" stroke-linecap="round"/>
<path d="M6 82C18.1452 81.8214 30.0269 79.7104 42 78" stroke="black" stroke-width="3" stroke-linecap="round"/>
<path d="M5 85C9.76615 93.2491 13.0196 106 24.2222 106C28.012 106 34.5585 106.213 36.5556 102.111C39.7845 95.4787 38 85.1418 38 78" stroke="black" stroke-width="3" stroke-linecap="round"/>
<path d="M35 81C41.1732 80.4444 49.4666 80.7667 55 78" stroke="black" stroke-width="3" stroke-linecap="round"/>
<path d="M14 95.0001C16.7363 93.0456 20.4381 90.1876 24 90.0001C27.6417 89.8084 20.1475 93.3899 19.4444 94.4445C17.6977 97.0647 29.5366 95.6735 30.1667 96.5556C31.3435 98.2032 21.5341 101.052 31 100" stroke="black" stroke-width="3" stroke-linecap="round"/>
<path d="M7 150C10.6588 160.57 14.699 166.885 23 174" stroke="black" stroke-width="3" stroke-linecap="round"/>
<path d="M7 148C19.1956 147.77 30.6256 144 43 144" stroke="black" stroke-width="3" stroke-linecap="round"/>
<path d="M24 177C28.7964 176.338 34.9873 176.914 37.5 171.889C40.8535 165.182 39 155.304 39 148" stroke="black" stroke-width="3" stroke-linecap="round"/>
<path d="M40 147C49.1335 147 58.0493 145.79 67 144" stroke="black" stroke-width="3" stroke-linecap="round"/>
<path d="M12.25 160.75C17.2982 160.75 22.4289 160.363 27.4583 159.972C30.6221 159.726 33.7979 159.386 36.9306 158.875C38.7354 158.581 39.9679 158.39 41.25 157.25" stroke="black" stroke-width="3" stroke-linecap="round"/>
<path d="M15.75 160.25C18.2838 155.284 15.5251 162.519 17.3889 162.181C18.6909 161.944 19.4792 158.674 20.4444 157.806C21.0045 157.301 21.5867 158.721 22.25 158.5" stroke="black" stroke-width="3" stroke-linecap="round"/>
<path d="M28.25 158.25C28.4705 159.002 28.6741 160.538 29.375 161.083C29.8832 161.479 31.1499 158.968 31.3472 158.667C31.6228 158.246 31.893 157.373 32.5556 157.556C33.935 157.936 34.6705 157.804 36 157.25" stroke="black" stroke-width="3" stroke-linecap="round"/>
</svg>
