<?xml version="1.0" encoding="UTF-8" standalone="no"?>
<svg
   width="56"
   height="106.63881"
   viewBox="0 0 56 106.63881"
   fill="none"
   version="1.1"
   id="svg26"
   sodipodi:docname="Group190.svg"
   inkscape:version="1.2.1 (9c6d41e410, 2022-07-14)"
   xmlns:inkscape="http://www.inkscape.org/namespaces/inkscape"
   xmlns:sodipodi="http://sodipodi.sourceforge.net/DTD/sodipodi-0.dtd"
   xmlns="http://www.w3.org/2000/svg"
   xmlns:svg="http://www.w3.org/2000/svg">
  <defs
     id="defs30" />
  <sodipodi:namedview
     id="namedview28"
     pagecolor="#ffffff"
     bordercolor="#000000"
     borderopacity="0.25"
     inkscape:showpageshadow="2"
     inkscape:pageopacity="0.0"
     inkscape:pagecheckerboard="0"
     inkscape:deskcolor="#d1d1d1"
     showgrid="false"
     inkscape:zoom="4.3687151"
     inkscape:cx="34.106138"
     inkscape:cy="88.584399"
     inkscape:window-width="1920"
     inkscape:window-height="1043"
     inkscape:window-x="0"
     inkscape:window-y="0"
     inkscape:window-maximized="1"
     inkscape:current-layer="svg26" />
  <path
     d="m 1.5,34.135708 c 9.6978,-5.3243 11.8317,-14.2754 17.9444,-22.8334 3.2161,-4.5024099 10.5534,-16.3521599 13.6112,-5.0555099 1.4223,5.2549099 6.7113,31.3243099 -0.8889,34.1111099 -7.1952,2.6382 -16.1919,-1.7138 -23.6667,0.7778"
     stroke="#000000"
     stroke-width="3"
     stroke-linecap="round"
     id="path2" />
  <path
     d="m 5.5,81.135608 c 12.1452,-0.1786 24.0269,-2.2896 36,-4"
     stroke="#000000"
     stroke-width="3"
     stroke-linecap="round"
     id="path4" />
  <path
     d="m 4.5,84.135608 c 4.76615,8.2491 8.0196,21.000002 19.2222,21.000002 3.7898,0 10.3363,0.213 12.3334,-3.889 C 39.2845,94.614308 37.5,84.277408 37.5,77.135608"
     stroke="#000000"
     stroke-width="3"
     stroke-linecap="round"
     id="path6" />
  <path
     d="m 34.5,80.135608 c 6.1732,-0.5556 14.4666,-0.2333 20,-3"
     stroke="#000000"
     stroke-width="3"
     stroke-linecap="round"
     id="path8" />
  <path
     d="m 13.5,94.135708 c 2.7363,-1.9545 6.4381,-4.8125 10,-5 3.6417,-0.1917 -3.8525,3.3898 -4.5556,4.4444 -1.7467,2.6202 10.0922,1.229 10.7223,2.1111 1.1768,1.6476 -8.6326,4.496402 0.8333,3.4444"
     stroke="#000000"
     stroke-width="3"
     stroke-linecap="round"
     id="path10" />
</svg>
