<?xml version="1.0" encoding="UTF-8" standalone="no"?>
<svg
   width="53.561138"
   height="154"
   viewBox="0 0 53.561138 154"
   fill="none"
   version="1.1"
   id="svg16"
   sodipodi:docname="Group147.svg"
   inkscape:version="1.2.1 (9c6d41e410, 2022-07-14)"
   xmlns:inkscape="http://www.inkscape.org/namespaces/inkscape"
   xmlns:sodipodi="http://sodipodi.sourceforge.net/DTD/sodipodi-0.dtd"
   xmlns="http://www.w3.org/2000/svg"
   xmlns:svg="http://www.w3.org/2000/svg">
  <defs
     id="defs20" />
  <sodipodi:namedview
     id="namedview18"
     pagecolor="#ffffff"
     bordercolor="#000000"
     borderopacity="0.25"
     inkscape:showpageshadow="2"
     inkscape:pageopacity="0.0"
     inkscape:pagecheckerboard="0"
     inkscape:deskcolor="#d1d1d1"
     showgrid="false"
     inkscape:zoom="5.0451613"
     inkscape:cx="26.560102"
     inkscape:cy="76.905371"
     inkscape:window-width="1920"
     inkscape:window-height="1043"
     inkscape:window-x="0"
     inkscape:window-y="0"
     inkscape:window-maximized="1"
     inkscape:current-layer="svg16" />
  <path
     d="m 12.061138,27.5 c -0.5195,5.1948 0.6555,19.4169 9.7778,15.6667 5.0171,-2.0626 6.9633,-9.0057 4.1111,-13.5 -5.1565,-8.1254 -12.0981,-3.7338 -18.8888998,-2.1667"
     stroke="#000000"
     stroke-width="3"
     stroke-linecap="round"
     id="path2" />
  <path
     d="m 20.061138,55.5 c 2.7925,-4.3439 5.4838,-8 10.9444,-8 4.3807,0 1.878,-3.5973 3.1667,-7.5556 1.0404,-3.1956 2.4239,-6.3287 5.7778,-7.6111 3.5574,-1.3601 2.2961,0.9143 0.5555,-1.5 -5.4934,-7.6199 6.1927,-13.0957 11.5556,-14.3333"
     stroke="#000000"
     stroke-width="3"
     stroke-linecap="round"
     id="path4" />
  <path
     d="m 5.0612082,39.5 c -0.07363,-3.0921 0.27329,-6.914 -3.33334,-7.9444 -1.25023003,-0.3573 2.84074,0.1176 3.83334,-0.7223 2.42818,-2.0546 1.667,-6.14 4.9444298,-7.1111 10.463,-3.1001 11.9096,-12.7577 13.5556,-22.2222"
     stroke="#000000"
     stroke-width="3"
     stroke-linecap="round"
     id="path6" />
  <path
     d="m 8.0611382,85.5 c 0,7.422 0.95491,11.6583 5.0555998,2.9444 1.096,-2.329 1.8235,-5.0359 2.9444,-7.2778 1.457,-2.914 -0.07,6.7821 1.4444,9.6667 1.4094,2.6844 5.6864,-4.5622 6.3334,-5.3889 1.759,-2.2476 1.2112,3.1182 2.3889,4.2222 1.8822,1.7646 3.7501,-1.802 5.8333,-0.2778 3.4109,2.4958 4.8105,3.6348 9,3.1112"
     stroke="#000000"
     stroke-width="3"
     stroke-linecap="round"
     id="path8" />
  <path
     d="m 16.061138,136.5 c 1.4549,5.456 2,10.424 2,16"
     stroke="#000000"
     stroke-width="3"
     stroke-linecap="round"
     id="path10" />
  <path
     d="m 19.061238,129.5 c -4.4263,-11.066 -3.1247,13.751 0.3889,6.333 1.2883,-2.719 1.2802,-7.829 -0.3889,-10.333"
     stroke="#000000"
     stroke-width="3"
     stroke-linecap="round"
     id="path12" />
  <path
     d="m 24.061138,139.5 c 1.3022,-1.925 3.6312,-4.578 1,-6.222 -1.4229,-0.89 1.8101,-1.639 2.4445,-2.389 1.9286,-2.279 1.4156,-7.281 -0.8889,-9.167 -0.7773,-0.636 -3.8356,0.279 -3,-0.278 4.2329,-2.822 -3.16,-9.462 -7.3333,-7.944 -2.3016,0.837 -7.7025798,0.767 -9.2222598,2.111 -2.86937,2.538 -3.17087,8.058 -3,11.444 0.18844,3.735 1.23586,8.513 3,11.889 5.6999598,10.908 -0.52516,-2.443 4.9999598,4.556"
     stroke="#000000"
     stroke-width="3"
     stroke-linecap="round"
     id="path14" />
</svg>
