<?xml version="1.0" encoding="UTF-8" standalone="no"?>
<svg
   height="40"
   width="40"
   version="1.1"
   id="svg4"
   sodipodi:docname="schedule_FILL0_wght400_GRAD0_opsz48.svg"
   inkscape:version="1.2.1 (9c6d41e410, 2022-07-14)"
   xmlns:inkscape="http://www.inkscape.org/namespaces/inkscape"
   xmlns:sodipodi="http://sodipodi.sourceforge.net/DTD/sodipodi-0.dtd"
   xmlns="http://www.w3.org/2000/svg"
   xmlns:svg="http://www.w3.org/2000/svg">
  <defs
     id="defs8" />
  <sodipodi:namedview
     id="namedview6"
     pagecolor="#ffffff"
     bordercolor="#000000"
     borderopacity="0.25"
     inkscape:showpageshadow="2"
     inkscape:pageopacity="0.0"
     inkscape:pagecheckerboard="0"
     inkscape:deskcolor="#d1d1d1"
     showgrid="false"
     inkscape:zoom="16.291667"
     inkscape:cx="20.01023"
     inkscape:cy="20.01023"
     inkscape:window-width="1920"
     inkscape:window-height="1043"
     inkscape:window-x="0"
     inkscape:window-y="0"
     inkscape:window-maximized="1"
     inkscape:current-layer="svg4" />
  <path
     d="m 27.35,29.65 2.25,-2.25 -7.95,-8 V 9.35 h -3 V 20.6 Z M 20,40 Q 15.9,40 12.25,38.425 8.6,36.85 5.875,34.125 3.15,31.4 1.575,27.75 0,24.1 0,20 0,15.9 1.575,12.25 3.15,8.6 5.875,5.875 8.6,3.15 12.25,1.575 15.9,0 20,0 q 4.1,0 7.75,1.575 3.65,1.575 6.375,4.3 2.725,2.725 4.3,6.375 Q 40,15.9 40,20 q 0,4.1 -1.575,7.75 -1.575,3.65 -4.3,6.375 Q 31.4,36.85 27.75,38.425 24.1,40 20,40 Z m 0,-20 z m 0,17 q 7,0 12,-5 5,-5 5,-12 Q 37,13 32,8 27,3 20,3 13,3 8,8 3,13 3,20 q 0,7 5,12 5,5 12,5 z"
     id="path2" />
</svg>
