<svg width="95" height="92" viewBox="0 0 95 92" fill="none" xmlns="http://www.w3.org/2000/svg">
<path d="M39.7015 15.4194C25.8626 12.1356 18.2111 31.1874 17.6058 42.3859C16.4425 63.9061 28.927 86.7987 52.7198 86.7987C75.0272 86.7987 83.4933 58.8105 78.9336 40.4375C76.1003 29.021 67.9302 17.5343 55.8637 15.3308C40.3749 12.5024 29.8549 21.3028 18.1814 29.7661" stroke="white" stroke-width="4" stroke-linecap="round"/>
<path d="M23.7606 75.1973C22.081 77.6446 10.3915 92.7992 20.9709 89.544C25.4545 88.1644 27.822 82.8766 31.731 81.5736" stroke="white" stroke-width="4" stroke-linecap="round"/>
<path d="M72.3801 75.9943C73.606 76.3417 92.1633 82.5496 92.3061 79.9795C92.5624 75.3657 82.6754 70.2539 79.5535 68.0239" stroke="white" stroke-width="4" stroke-linecap="round"/>
<path d="M46.8747 45.7069C50.2446 59.8605 59.0043 39.3224 46.0776 46.5039" stroke="white" stroke-width="4" stroke-linecap="round"/>
<path d="M8.27344 30.5615C2.94046 26.5068 -0.212874 17.0824 3.84621 11.0288C7.1712 6.07007 14.9996 4.36041 20.559 4.3162C22.6575 4.2995 25.946 5.0332 26.7018 7.28737" stroke="white" stroke-width="4" stroke-linecap="round"/>
<path d="M8.89308 27.4129C7.73616 28.6441 6.44366 29.7613 8.45083 28.3817C10.9603 26.657 13.1278 23.7653 15.361 21.6566C18.6471 18.5538 21.8613 15.4799 25.5052 12.8228C27.0691 11.6824 28.6653 10.4926 29.7895 8.94727" stroke="white" stroke-width="4" stroke-linecap="round"/>
<path d="M82.2061 24.386C85.339 16.7183 84.2476 7.18562 76.0639 3.45775C68.4586 -0.00664018 62.0475 3.04872 56.8071 8.98918" stroke="white" stroke-width="4" stroke-linecap="round"/>
<path d="M56.8071 5.85938C64.4447 11.0502 70.4918 17.7805 77.5984 23.5471C79.3199 24.9439 81.7408 27.5547 83.8247 28.2453" stroke="white" stroke-width="4" stroke-linecap="round"/>
<path d="M39.7015 15.4194C25.8626 12.1356 18.2111 31.1874 17.6058 42.3859C16.4425 63.9061 28.927 86.7987 52.7198 86.7987C75.0272 86.7987 83.4933 58.8105 78.9336 40.4375C76.1003 29.021 67.9302 17.5343 55.8637 15.3308C40.3749 12.5024 29.8549 21.3028 18.1814 29.7661" stroke="white" stroke-width="4" stroke-linecap="round"/>
<path d="M23.7606 75.1973C22.081 77.6446 10.3915 92.7992 20.9709 89.544C25.4545 88.1644 27.822 82.8766 31.731 81.5736" stroke="white" stroke-width="4" stroke-linecap="round"/>
<path d="M72.3801 75.9943C73.606 76.3417 92.1633 82.5496 92.3061 79.9795C92.5624 75.3657 82.6754 70.2539 79.5535 68.0239" stroke="white" stroke-width="4" stroke-linecap="round"/>
<path d="M46.8747 45.7069C50.2446 59.8605 59.0043 39.3224 46.0776 46.5039" stroke="white" stroke-width="4" stroke-linecap="round"/>
<path d="M8.27344 30.5615C2.94046 26.5068 -0.212874 17.0824 3.84621 11.0288C7.1712 6.07007 14.9996 4.36041 20.559 4.3162C22.6575 4.2995 25.946 5.0332 26.7018 7.28737" stroke="white" stroke-width="4" stroke-linecap="round"/>
<path d="M8.89308 27.4129C7.73616 28.6441 6.44366 29.7613 8.45083 28.3817C10.9603 26.657 13.1278 23.7653 15.361 21.6566C18.6471 18.5538 21.8613 15.4799 25.5052 12.8228C27.0691 11.6824 28.6653 10.4926 29.7895 8.94727" stroke="white" stroke-width="4" stroke-linecap="round"/>
<path d="M82.2061 24.386C85.339 16.7183 84.2476 7.18562 76.0639 3.45775C68.4586 -0.00664018 62.0475 3.04872 56.8071 8.98918" stroke="white" stroke-width="4" stroke-linecap="round"/>
<path d="M56.8071 5.85938C64.4447 11.0502 70.4918 17.7805 77.5984 23.5471C79.3199 24.9439 81.7408 27.5547 83.8247 28.2453" stroke="white" stroke-width="4" stroke-linecap="round"/>
</svg>
