<?xml version="1.0" encoding="UTF-8" standalone="no"?>
<svg
   width="24.4506"
   height="21.7339"
   viewBox="0 0 24.4506 21.7339"
   fill="none"
   version="1.1"
   id="svg4"
   sodipodi:docname="Exclude.svg"
   inkscape:version="1.2.1 (9c6d41e410, 2022-07-14)"
   xmlns:inkscape="http://www.inkscape.org/namespaces/inkscape"
   xmlns:sodipodi="http://sodipodi.sourceforge.net/DTD/sodipodi-0.dtd"
   xmlns="http://www.w3.org/2000/svg"
   xmlns:svg="http://www.w3.org/2000/svg">
  <defs
     id="defs8" />
  <sodipodi:namedview
     id="namedview6"
     pagecolor="#ffffff"
     bordercolor="#000000"
     borderopacity="0.25"
     inkscape:showpageshadow="2"
     inkscape:pageopacity="0.0"
     inkscape:pagecheckerboard="0"
     inkscape:deskcolor="#d1d1d1"
     showgrid="false"
     inkscape:zoom="35.545455"
     inkscape:cx="12.519182"
     inkscape:cy="11"
     inkscape:window-width="1920"
     inkscape:window-height="1043"
     inkscape:window-x="0"
     inkscape:window-y="0"
     inkscape:window-maximized="1"
     inkscape:current-layer="svg4" />
  <path
     fill-rule="evenodd"
     clip-rule="evenodd"
     d="m 10.9722,20.6368 1.2531,1.0971 1.2531,-1.0971 c 2.1598,-1.9174 3.9426,-3.5729 5.3485,-4.9665 1.406,-1.3936 2.5266,-2.6389 3.362,-3.736 0.8354,-1.097 1.4212,-2.09032 1.7574,-2.97983 0.3362,-0.88952 0.5043,-1.78892 0.5043,-2.6982 0,-1.77904 -0.6164,-3.26651 -1.8491,-4.46241 C 21.3688,0.597953 19.8457,0 18.0323,0 16.932,0 15.9031,0.252029 14.9454,0.756089 13.9878,1.26015 13.0811,2.04589 12.2253,3.11331 11.4918,2.10519 10.6309,1.33427 9.6427,0.800565 8.65449,0.266855 7.57968,0 6.41828,0 4.60486,0 3.08179,0.597953 1.84908,1.79386 0.616359,2.98976 0,4.47723 0,6.25627 0,7.16555 0.168098,8.06495 0.504293,8.95447 0.840489,9.84398 1.42628,10.8373 2.26168,11.9343 c 0.83539,1.0971 1.95605,2.3424 3.36195,3.736 1.40591,1.3936 3.18877,3.0491 5.34857,4.9665 z"
     fill="#0f0f0f"
     id="path2" />
</svg>
