<?xml version="1.0" encoding="UTF-8" standalone="no"?>
<svg
   width="24.4506"
   height="21.7339"
   viewBox="0 0 24.4506 21.7339"
   fill="none"
   version="1.1"
   id="svg4"
   sodipodi:docname="like.svg"
   inkscape:version="1.2.1 (9c6d41e410, 2022-07-14)"
   xmlns:inkscape="http://www.inkscape.org/namespaces/inkscape"
   xmlns:sodipodi="http://sodipodi.sourceforge.net/DTD/sodipodi-0.dtd"
   xmlns="http://www.w3.org/2000/svg"
   xmlns:svg="http://www.w3.org/2000/svg">
  <defs
     id="defs8" />
  <sodipodi:namedview
     id="namedview6"
     pagecolor="#ffffff"
     bordercolor="#000000"
     borderopacity="0.25"
     inkscape:showpageshadow="2"
     inkscape:pageopacity="0.0"
     inkscape:pagecheckerboard="0"
     inkscape:deskcolor="#d1d1d1"
     showgrid="false"
     inkscape:zoom="35.545455"
     inkscape:cx="12.491049"
     inkscape:cy="11"
     inkscape:window-width="1920"
     inkscape:window-height="1043"
     inkscape:window-x="0"
     inkscape:window-y="0"
     inkscape:window-maximized="1"
     inkscape:current-layer="svg4" />
  <path
     d="M 12.2253,21.7339 10.9722,20.6368 C 8.8124,18.7194 7.02954,17.0639 5.62363,15.6703 4.21773,14.2767 3.09707,13.0314 2.26168,11.9343 1.42628,10.8373 0.840489,9.84398 0.504293,8.95447 0.168098,8.06495 0,7.16555 0,6.25627 0,4.47723 0.616359,2.98976 1.84908,1.79386 3.08179,0.597953 4.60486,0 6.41828,0 7.57968,0 8.65449,0.266855 9.6427,0.800565 10.6309,1.33427 11.4918,2.10519 12.2253,3.11331 13.0811,2.04589 13.9878,1.26015 14.9454,0.756089 15.9031,0.252029 16.932,0 18.0323,0 c 1.8134,0 3.3365,0.597953 4.5692,1.79386 1.2327,1.1959 1.8491,2.68337 1.8491,4.46241 0,0.90928 -0.1681,1.80868 -0.5043,2.6982 -0.3362,0.88951 -0.922,1.88283 -1.7574,2.97983 -0.8354,1.0971 -1.956,2.3424 -3.362,3.736 -1.4059,1.3936 -3.1887,3.0491 -5.3485,4.9665 z m 0,-2.3424 c 2.0579,-1.8384 3.7542,-3.4148 5.0888,-4.7293 1.3346,-1.3145 2.3941,-2.4659 3.1785,-3.4543 0.7845,-0.9883 1.3346,-1.86798 1.6505,-2.63889 0.3158,-0.77092 0.4737,-1.54183 0.4737,-2.31274 0,-1.30463 -0.4279,-2.37699 -1.2837,-3.21709 -0.8557,-0.8401 -1.956,-1.26015 -3.3008,-1.26015 -1.0391,0 -2.007,0.31133 -2.9035,0.934 -0.8965,0.62266 -1.6199,1.49735 -2.17,2.62407 H 11.4612 C 10.9314,4.23014 10.2183,3.3604 9.32178,2.72785 8.42526,2.09531 7.45743,1.77903 6.41828,1.77903 c -1.34478,0 -2.44506,0.42005 -3.30083,1.26015 -0.85577,0.8401 -1.28366,1.91246 -1.28366,3.21709 0,0.77091 0.15791,1.54677 0.47373,2.32756 0.31582,0.7808 0.86596,1.67027 1.65042,2.66857 0.78445,0.9982 1.84907,2.1496 3.19386,3.4543 1.34478,1.3046 3.0359,2.8662 5.0735,4.6848 z"
     fill="#0f0f0f"
     id="path2" />
</svg>
