<svg width="18" height="21" viewBox="0 0 18 21" fill="none" xmlns="http://www.w3.org/2000/svg">
<path d="M14.3307 3.80942L13.2864 2.76504L7.86923 8.18215V9.2363H8.92338L14.3307 3.80942ZM12.2127 1.69137L13.4718 0.432258C13.6071 0.295327 13.7682 0.186609 13.9458 0.112409C14.1234 0.0382079 14.3139 0 14.5064 0C14.6989 0 14.8895 0.0382079 15.0671 0.112409C15.2447 0.186609 15.4058 0.295327 15.541 0.432258L16.6635 1.55472C17.2394 2.1306 17.2394 3.05785 16.6635 3.62397L15.9998 4.28768L15.9803 4.30721L15.4142 4.87332L9.55781 10.7297H6.35635V7.54772L12.2127 1.69137ZM9.98728 1.15454L9.45045 1.69137L8.21085 2.93097C4.98986 2.97977 2.45212 5.46871 2.45212 8.98252C2.45212 11.2665 4.35543 14.2923 8.30846 17.9037C12.2615 14.2923 14.1648 11.2763 14.1648 8.98252V8.88492L15.9217 7.12801C16.0486 7.71365 16.1169 8.33832 16.1169 8.98252C16.1169 12.223 13.5108 16.0589 8.30846 20.5C3.10607 16.0589 0.5 12.223 0.5 8.98252C0.5 4.12175 4.20902 0.97885 8.30846 0.97885C8.87457 0.97885 9.44069 1.03741 9.98728 1.15454Z" fill="black"/>
</svg>
