<?xml version="1.0" encoding="UTF-8" standalone="no"?>
<svg
   height="40"
   width="32"
   version="1.1"
   id="svg135"
   sodipodi:docname="notifications_FILL0_wght400_GRAD0_opsz48(1).svg"
   inkscape:version="1.2.1 (9c6d41e410, 2022-07-14)"
   xmlns:inkscape="http://www.inkscape.org/namespaces/inkscape"
   xmlns:sodipodi="http://sodipodi.sourceforge.net/DTD/sodipodi-0.dtd"
   xmlns="http://www.w3.org/2000/svg"
   xmlns:svg="http://www.w3.org/2000/svg">
  <defs
     id="defs139" />
  <sodipodi:namedview
     id="namedview137"
     pagecolor="#ffffff"
     bordercolor="#000000"
     borderopacity="0.25"
     inkscape:showpageshadow="2"
     inkscape:pageopacity="0.0"
     inkscape:pagecheckerboard="0"
     inkscape:deskcolor="#d1d1d1"
     showgrid="false"
     inkscape:zoom="16.291667"
     inkscape:cx="16.02046"
     inkscape:cy="20.01023"
     inkscape:window-width="1920"
     inkscape:window-height="1043"
     inkscape:window-x="0"
     inkscape:window-y="0"
     inkscape:window-maximized="1"
     inkscape:current-layer="svg135" />
  <path
     d="M 0,34 V 31 H 4.2 V 15.7 Q 4.2,11.5 6.675,8.225 9.15,4.95 13.2,4.1 V 2.65 Q 13.2,1.5 14.025,0.75 14.85,0 16,0 17.15,0 17.975,0.75 18.8,1.5 18.8,2.65 V 4.1 q 4.05,0.85 6.55,4.125 2.5,3.275 2.5,7.475 V 31 H 32 v 3 z M 16,19.25 Z M 16,40 Q 14.4,40 13.2,38.825 12,37.65 12,36 h 8 q 0,1.65 -1.175,2.825 Q 17.65,40 16,40 Z M 7.2,31 H 24.85 V 15.7 Q 24.85,12 22.3,9.4 19.75,6.8 16.05,6.8 12.35,6.8 9.775,9.4 7.2,12 7.2,15.7 Z"
     id="path133" />
</svg>
