<?xml version="1.0" encoding="UTF-8" standalone="no"?>
<svg
   x="0"
   y="0"
   width="700"
   height="350"
   viewBox="0 0 700 350"
   version="1.1"
   id="svg394"
   sodipodi:docname="pattern.svg"
   inkscape:version="1.2.1 (9c6d41e410, 2022-07-14)"
   xmlns:inkscape="http://www.inkscape.org/namespaces/inkscape"
   xmlns:sodipodi="http://sodipodi.sourceforge.net/DTD/sodipodi-0.dtd"
   xmlns:xlink="http://www.w3.org/1999/xlink"
   xmlns="http://www.w3.org/2000/svg"
   xmlns:svg="http://www.w3.org/2000/svg"
   xmlns:fi="http://pattern.flaticon.com/">
  <sodipodi:namedview
     id="namedview396"
     pagecolor="#ffffff"
     bordercolor="#000000"
     borderopacity="0.25"
     inkscape:showpageshadow="2"
     inkscape:pageopacity="0.0"
     inkscape:pagecheckerboard="0"
     inkscape:deskcolor="#d1d1d1"
     showgrid="false"
     inkscape:zoom="1.9385714"
     inkscape:cx="316.47015"
     inkscape:cy="174.87104"
     inkscape:window-width="1920"
     inkscape:window-height="1043"
     inkscape:window-x="0"
     inkscape:window-y="0"
     inkscape:window-maximized="1"
     inkscape:current-layer="svg394" />
  <rect
     x="0px"
     y="0px"
     width="100%"
     height="100%"
     opacity="1"
     fill="#ffa210"
     id="rect2"
     style="fill:#ffffff" />
  <defs
     id="defs208">
    <g
       transform="matrix(1.3043478727340698 0 0 1.3043478727340698 238 200)"
       id="L1_0">
      <path
         d="M33,6.422V6c1.1,0,2-0.9,2-2V2c0-1.1-0.9-2-2-2h-9h-3h-9c-1.1,0-2,0.9-2,2v2c0,1.1,0.9,2,2,2h1   v0.422c0,3.89-7,1.828-7,9v22.194C6,42.247,9.753,46,14.383,46H23h8.617C36.247,46,40,42.247,40,37.617V15.422   C40,8.25,33,10.313,33,6.422z"
         fill="#f9da49"
         id="path4" />
      <path
         d="M33,0h-9h-3h-9c-1.1,0-2,0.9-2,2v2c0,1.1,0.9,2,2,2h9h3h9c1.1,0,2-0.9,2-2V2C35,0.9,34.1,0,33,0z"
         fill="#38454f"
         id="path6" />
      <rect
         x="6px"
         y="17px"
         width="34px"
         height="21px"
         fill="#f9ea80"
         id="rect8" />
      <path
         d="M18.5,35c-4.136,0-7.5-3.364-7.5-7.5s3.364-7.5,7.5-7.5c0.553,0,1,0.447,1,1s-0.447,1-1,1   c-3.032,0-5.5,2.468-5.5,5.5s2.468,5.5,5.5,5.5c0.553,0,1,0.447,1,1S19.053,35,18.5,35z"
         fill="#dc9628"
         id="path10" />
      <path
         d="M27.5,35c-0.553,0-1-0.447-1-1s0.447-1,1-1c3.032,0,5.5-2.468,5.5-5.5S30.532,22,27.5,22   c-0.553,0-1-0.447-1-1s0.447-1,1-1c4.136,0,7.5,3.364,7.5,7.5S31.636,35,27.5,35z"
         fill="#dc9628"
         id="path12" />
    </g>
    <g
       transform="matrix(1.0526316165924072 0 0 1.0526316165924072 239 77)"
       id="L1_1">
      <path
         d="M18.986,38.342v-6.137c0-3.263-1.082-6.477-3.236-8.927c-1.845-2.099-4.639-3.936-8.764-3.936   c0,0,23-9.563,23,10v9v-0.337v6.658c0,0-0.536,8.572,7.024,9.843c0.453,0.076,0.508,0.699,0.071,0.84   c-5.513,1.788-18.095,5.418-18.095-10.684v-6.658V38.342z"
         fill="#88c057"
         id="path15" />
      <path
         d="M32.446,24.544c-1.594,0.672-2.537,2.165-2.455,3.748c0.018,0.34,0.027,0.69,0.027,1.05v8.663v0.337   v6.321c0,0-0.015,0.055-0.036,0.147c-0.03,1.093,0.031,8.494,6.998,9.689C36.863,52.596,35.365,24.073,50.014,28   C50.014,28,40.714,21.056,32.446,24.544z"
         fill="#659c35"
         id="path17" />
      <path
         d="M35.72,6.006c-0.003-0.01-0.004-0.011-0.008-0.021C33.418-0.042,28.718,0,28.718,0   s-4.701-0.042-6.994,5.985c-0.004,0.01-0.005,0.012-0.008,0.022c-0.053,0.172-1.115,3.704-1.729,10.949   c-0.004,0.05,0.022,0.091,0.039,0.136c4.373,0.408,8.432,2.515,9.609,8.486c0.37-0.46,0.839-0.84,1.401-1.094   c1.841-0.832,3.734-1.041,5.541-0.889c0.302-0.018,0.603-0.026,0.904-0.025c0.071-0.061,0.137-0.118,0.238-0.205V21   C37.228,11.002,35.779,6.2,35.72,6.006z"
         fill="#f9d70b"
         id="path19" />
      <path
         d="M25.984,33c-0.022,0-0.045-0.001-0.068-0.002c-0.551-0.037-0.968-0.514-0.931-1.065   c0.486-7.233-3.005-7.919-3.154-7.944c-0.538-0.093-0.911-0.601-0.828-1.14s0.574-0.91,1.115-0.84   c0.224,0.031,5.48,0.857,4.862,10.059C26.945,32.595,26.505,33,25.984,33z"
         fill="#a4e869"
         id="path21" />
      <path
         d="M27.984,54c-0.043,0-0.086-0.003-0.129-0.008c-4.963-0.639-6.01-4.896-5.871-7.057   c0.036-0.551,0.52-0.948,1.063-0.934c0.55,0.036,0.967,0.509,0.934,1.059c-0.025,0.449-0.123,4.4,4.129,4.947   c0.548,0.071,0.935,0.572,0.864,1.12C28.91,53.631,28.48,54,27.984,54z"
         fill="#a4e869"
         id="path23" />
      <path
         d="M33.981,33.999c-0.464,0-0.88-0.325-0.978-0.798c-0.028-0.138-0.674-3.399,1.186-5.238   c1.117-1.104,2.801-1.418,5.007-0.94c0.54,0.118,0.882,0.65,0.764,1.19c-0.118,0.539-0.648,0.883-1.19,0.765   c-1.498-0.33-2.566-0.19-3.171,0.404c-0.905,0.89-0.766,2.77-0.636,3.419c0.108,0.541-0.241,1.068-0.781,1.178   C34.114,33.992,34.047,33.999,33.981,33.999z"
         fill="#88c057"
         id="path25" />
      <path
         d="M37.718,21.228h-2.543V18.04h2.359c-0.052-0.695-0.107-1.367-0.166-2h-2.193v-3.188h1.837   c-0.094-0.722-0.19-1.394-0.285-2h-1.552V7.663h0.959c-0.23-1.043-0.395-1.594-0.414-1.657c-0.003-0.01-0.004-0.011-0.008-0.021   c-0.044-0.115-0.093-0.212-0.139-0.322h-0.399V4.775c-1.289-2.561-3.035-3.752-4.389-4.301h-0.799V0.206   C29.227,0,28.718,0,28.718,0s-0.28-0.001-0.732,0.081v0.393H26.65c-1.174,0.475-2.642,1.438-3.853,3.352v1.837h-0.935   c-0.045,0.11-0.095,0.208-0.139,0.322c-0.004,0.01-0.005,0.012-0.008,0.022c-0.02,0.065-0.184,0.612-0.414,1.656h1.496v3.188   h-2.086c-0.096,0.608-0.192,1.274-0.286,2h2.372v3.188h-2.727c-0.028,0.301-0.057,0.601-0.084,0.916   c-0.004,0.05,0.022,0.091,0.039,0.136c1.687,0.157,3.325,0.572,4.771,1.359V18.04h3.188v3.188h-0.101   c0.791,1.149,1.4,2.575,1.75,4.349c0.103-0.129,0.232-0.234,0.351-0.349v-2h3.188v0.559c0.669-0.141,1.338-0.215,2-0.233v-0.326   h2.543V21.228z M27.986,16.04h-3.188v-3.188h3.188V16.04z M27.986,10.851h-3.188V7.663h3.188V10.851z M27.986,5.663h-3.188V2.474   h3.188V5.663z M33.174,21.228h-3.188V18.04h3.188V21.228z M33.174,16.04h-3.188v-3.188h3.188V16.04z M33.174,10.851h-3.188V7.663   h3.188V10.851z M33.174,5.663h-3.188V2.474h3.188V5.663z"
         fill="#f1b501"
         id="path27" />
    </g>
    <g
       transform="matrix(1.0909091234207153 0 0 1.0909091234207153 184 339)"
       id="L1_2">
      <path
         d="M55,31.005H13c0,11.598,9.402,21,21,21S55,42.602,55,31.005z"
         fill="#f4c44e"
         id="path30" />
      <path
         d="M51,31.005H17c0,9.389,7.611,17,17,17S51,40.393,51,31.005z"
         fill="#f9ea80"
         id="path32" />
      <rect
         x="33px"
         y="31px"
         width="2px"
         height="17px"
         fill="#f9da49"
         id="rect34" />
      <rect
         x="31px"
         y="36px"
         width="16px"
         height="2px"
         transform="matrix(0.707099974155426 0.707099974155426 -0.707099974155426 0.707099974155426 37.881900787353516 -17.445899963378906)"
         fill="#f9da49"
         id="rect36" />
      <rect
         x="27px"
         y="28px"
         width="2px"
         height="16px"
         transform="matrix(0.707099974155426 0.707099974155426 -0.707099974155426 0.707099974155426 34.3671989440918 -8.960599899291992)"
         fill="#f9da49"
         id="rect38" />
      <path
         d="M47.983,11.284l0.397-0.397c1.556-1.556,1.556-4.101,0-5.657c-1.556-1.556-4.101-1.556-5.657,0   l-0.24,0.24c-9.091-6.132-23.107-3.763-32.994,6.124S-2.767,35.498,3.365,44.589l-0.24,0.24c-1.556,1.556-1.556,4.101,0,5.657   s4.101,1.556,5.657,0l0.397-0.397c5.548,3.31,12.717,3.647,19.639,1.245C19.731,49.023,13,40.811,13,31.005h36.202   C51.635,24.057,51.306,16.854,47.983,11.284z M32.885,9.024c-0.435,1.205-1.612,1.551-2.755,1.293   c0.588,0.133-0.089,0.004-0.21-0.007c-0.155-0.014-0.31-0.027-0.465-0.029c-0.051-0.001-0.101,0-0.152,0   c-0.026,0.002-0.051,0.004-0.094,0.007c-0.167,0.018-0.333,0.039-0.499,0.064c-1.159,0.175-2.283-0.584-2.485-1.758   c-0.196-1.137,0.598-2.31,1.758-2.485c1.244-0.188,2.392-0.115,3.609,0.16C32.739,6.528,33.246,8.024,32.885,9.024z"
         fill="#f9d70b"
         id="path40" />
    </g>
    <g
       transform="matrix(1.190901517868042 0 0 1.190901517868042 305 295)"
       id="L1_3">
      <path
         d="M0.191,31.434l9.263,17.032c0.444,1.154,1.553,1.916,2.79,1.916h25.894   c1.237,0,2.346-0.762,2.79-1.916l9.263-17.032c-2.764-2.736-7.236-2.736-10,0c-2.75-2.736-7.2-2.736-9.949,0   c-2.75-2.736-7.2-2.736-9.949,0c-2.778-2.736-7.273-2.736-10.051,0C7.464,28.698,2.969,28.698,0.191,31.434z"
         fill="#fbd490"
         id="path43" />
      <path
         d="M39.634,19.509c0.356-0.804,0.557-1.691,0.557-2.626c0-3.59-2.91-6.5-6.5-6.5   c-0.287,0-0.665,0.053-1.025,0.119l0,0c0.287-0.789,0.451-1.637,0.451-2.525C33.117,3.567,30.059,0,26.281,0h-1.139   c-3.779,0-6.837,3.567-6.837,7.976c0,0.887,0.164,1.734,0.45,2.522c-0.378-0.064-0.772-0.116-1.063-0.116c-3.59,0-6.5,2.91-6.5,6.5   c0,0.896,0.181,1.749,0.509,2.525c-4.741,0.256-8.509,4.171-8.509,8.975c0,0.431,0.041,0.851,0.099,1.265   c2.393-0.662,5.067-0.07,6.951,1.786c2.778-2.736,7.273-2.736,10.051,0c2.75-2.736,7.2-2.736,9.949,0c2.75-2.736,7.2-2.736,9.949,0   c1.871-1.852,4.524-2.446,6.901-1.79c0.058-0.413,0.099-0.832,0.099-1.262C47.191,23.904,43.917,20.2,39.634,19.509z"
         fill="#f9f2e8"
         id="path45" />
      <path
         d="M14.191,47.383c-0.44,0-0.843-0.292-0.964-0.737l-3-11c-0.145-0.532,0.169-1.082,0.702-1.228   c0.53-0.15,1.082,0.169,1.228,0.702l3,11c0.145,0.532-0.169,1.082-0.702,1.228C14.366,47.372,14.278,47.383,14.191,47.383z"
         fill="#d8a65d"
         id="path47" />
      <path
         d="M36.192,47.382c-0.087,0-0.175-0.011-0.264-0.035c-0.533-0.146-0.847-0.695-0.702-1.228l3-10.999   c0.146-0.533,0.693-0.85,1.228-0.702c0.533,0.146,0.847,0.695,0.702,1.228l-3,10.999C37.034,47.09,36.632,47.382,36.192,47.382z"
         fill="#d8a65d"
         id="path49" />
      <path
         d="M29.192,47.382c-0.03,0-0.061-0.001-0.091-0.004c-0.55-0.05-0.956-0.536-0.906-1.087l1-10.999   c0.05-0.55,0.535-0.956,1.086-0.905c0.55,0.05,0.956,0.537,0.906,1.087l-1,10.999C30.14,46.991,29.704,47.382,29.192,47.382z"
         fill="#d8a65d"
         id="path51" />
      <path
         d="M21.19,47.382c-0.512,0-0.948-0.391-0.995-0.909l-1-10.999c-0.05-0.55,0.355-1.037,0.906-1.087   c0.556-0.049,1.036,0.355,1.086,0.905l1,10.999c0.05,0.551-0.355,1.037-0.906,1.087C21.251,47.381,21.22,47.382,21.19,47.382z"
         fill="#d8a65d"
         id="path53" />
      <path
         d="M26.532,19.895c-0.441,0-0.844-0.293-0.965-0.739c-0.144-0.532,0.171-1.082,0.704-1.226l4.316-1.168   c0.534-0.149,1.083,0.17,1.227,0.704c0.144,0.532-0.171,1.082-0.704,1.226l-4.316,1.168C26.707,19.884,26.619,19.895,26.532,19.895   z"
         fill="#a4e869"
         id="path55" />
      <path
         d="M13.191,25.607c-0.104,0-0.211-0.017-0.316-0.052l-3-1c-0.524-0.174-0.807-0.74-0.632-1.265   c0.175-0.523,0.74-0.808,1.265-0.632l3,1c0.524,0.174,0.807,0.74,0.632,1.265C14,25.343,13.61,25.607,13.191,25.607z"
         fill="#e53384"
         id="path57" />
      <path
         d="M20.817,22.794c-0.02,0-0.04-0.001-0.061-0.002c-0.551-0.032-0.972-0.506-0.938-1.058l0.084-1.412   c0.032-0.552,0.497-0.958,1.058-0.938c0.551,0.032,0.972,0.506,0.938,1.058l-0.084,1.412   C21.782,22.385,21.342,22.794,20.817,22.794z"
         fill="#ed7161"
         id="path59" />
      <path
         d="M39.191,27.383c-0.256,0-0.512-0.098-0.707-0.293l-1-1c-0.391-0.391-0.391-1.023,0-1.414   s1.023-0.391,1.414,0l1,1c0.391,0.391,0.391,1.023,0,1.414C39.703,27.285,39.447,27.383,39.191,27.383z"
         fill="#ed3f32"
         id="path61" />
      <path
         d="M29.691,27.382c-0.256,0-0.512-0.098-0.707-0.293l-1-1c-0.391-0.391-0.391-1.023,0-1.414   s1.023-0.391,1.414,0l1,1c0.391,0.391,0.391,1.023,0,1.414C30.203,27.284,29.947,27.382,29.691,27.382z"
         fill="#f9d70b"
         id="path63" />
      <path
         d="M27.004,10.065c-0.448,0-0.855-0.303-0.969-0.758l-1-4c-0.134-0.535,0.192-1.078,0.728-1.212   c0.534-0.134,1.079,0.19,1.213,0.728l1,4c0.134,0.535-0.192,1.078-0.728,1.212C27.166,10.056,27.085,10.065,27.004,10.065z"
         fill="#6f58a8"
         id="path65" />
      <path
         d="M22.191,15.61c-0.256,0-0.512-0.098-0.707-0.293l-1-1c-0.391-0.391-0.391-1.023,0-1.414   s1.023-0.391,1.414,0l1,1c0.391,0.391,0.391,1.023,0,1.414C22.703,15.513,22.447,15.61,22.191,15.61z"
         fill="#3dabef"
         id="path67" />
    </g>
    <g
       transform="matrix(1.0847752094268799 0 0 1.0847752094268799 39.000003814697266 178)"
       id="L1_4">
      <path
         d="M18.833,32.412c-0.658,0.648-1.312,1.286-1.959,1.904c-0.792,0.757-1.666,1.415-2.597,1.994   c-2.619,1.628-9.232,6.259-11.382,9.08c-1.753,2.301-0.594,3.726,0.542,4.477c0.408,0.27,0.787,0.578,1.131,0.921   c0.343,0.344,0.651,0.723,0.921,1.131c0.751,1.135,2.177,2.294,4.477,0.542c2.821-2.149,7.452-8.763,9.08-11.382   c0.578-0.93,1.237-1.804,1.994-2.597c0.605-0.634,1.233-1.273,1.871-1.914L18.833,32.412z"
         fill="#d2d5d7"
         id="path70" />
      <path
         d="M22.911,36.568C35.293,24.12,53.19,10.652,53.19,10.652l-7.778-7.778   c0,0-14.078,17.221-26.579,29.538L22.911,36.568z"
         fill="#659c35"
         id="path72" />
      <g
         id="g82">
        <path
           d="M25.235,38.937c0.105-0.123,0.191-0.262,0.302-0.381c12.224-13.071,29.774-21.541,29.774-21.541    l-4.522-4.522c-5.287,4.098-18.249,14.392-27.879,24.074L25.235,38.937z"
           fill="#88c057"
           id="path74" />
        <path
           d="M22.909,36.567c-0.639,0.642-1.263,1.281-1.869,1.916c-0.757,0.792-1.415,1.666-1.994,2.597    c-1.58,2.542-5.984,8.834-8.822,11.168l0.692,0.677c1.183,1.567,3.201,3.319,5.627,1.691c2.975-1.995,5.737-10.479,7.138-13.324    c0.424-0.862,0.95-1.642,1.554-2.354L22.909,36.567z"
           fill="#efefef"
           id="path76" />
        <path
           d="M16.522,30.057c-0.759,0.675-1.61,1.246-2.547,1.707c-2.846,1.401-11.329,4.163-13.324,7.138    c-1.627,2.426,0.124,4.443,1.691,5.627l0.699,0.684c2.278-2.834,8.67-7.309,11.236-8.904c0.93-0.578,1.804-1.237,2.597-1.994    c0.647-0.618,1.302-1.254,1.96-1.903L16.522,30.057z"
           fill="#e6e6e6"
           id="path78" />
        <path
           d="M18.834,32.413c9.72-9.577,20.388-22.114,24.655-27.22l-5.148-5.148c0,0-8.56,17.64-21.631,29.864    c-0.058,0.054-0.128,0.096-0.187,0.148L18.834,32.413z"
           fill="#436b1c"
           id="path80" />
      </g>
      <path
         d="M8,51.266c-0.256,0-0.512-0.098-0.707-0.293l-3-3c-0.391-0.391-0.391-1.023,0-1.414   s1.023-0.391,1.414,0l3,3c0.391,0.391,0.391,1.023,0,1.414C8.512,51.169,8.256,51.266,8,51.266z"
         fill="#ffffff"
         id="path84" />
      <path
         d="M4,42.266c-0.256,0-0.512-0.098-0.707-0.293l-1-1c-0.391-0.391-0.391-1.023,0-1.414   s1.023-0.391,1.414,0l1,1c0.391,0.391,0.391,1.023,0,1.414C4.512,42.169,4.256,42.266,4,42.266z"
         fill="#ffffff"
         id="path86" />
      <path
         d="M15,53.266c-0.256,0-0.512-0.098-0.707-0.293l-1-1c-0.391-0.391-0.391-1.023,0-1.414   s1.023-0.391,1.414,0l1,1c0.391,0.391,0.391,1.023,0,1.414C15.512,53.169,15.256,53.266,15,53.266z"
         fill="#ffffff"
         id="path88" />
      <path
         d="M21.569,35.201 49.654,7.116 48.24,5.702 20.169,33.773z"
         fill="#88c057"
         id="path90" />
      <path
         d="M25.612,40.643c-0.256,0-0.512-0.098-0.707-0.293l-9.899-9.899c-0.391-0.391-0.391-1.023,0-1.414   s1.023-0.391,1.414,0l9.899,9.899c0.391,0.391,0.391,1.023,0,1.414C26.124,40.545,25.868,40.643,25.612,40.643z"
         fill="#a46f3e"
         id="path92" />
      <path
         d="M23.491,42.764c-0.256,0-0.512-0.098-0.707-0.293l-9.899-9.899c-0.391-0.391-0.391-1.023,0-1.414   s1.023-0.391,1.414,0l9.899,9.899c0.391,0.391,0.391,1.023,0,1.414C24.003,42.667,23.747,42.764,23.491,42.764z"
         fill="#a46f3e"
         id="path94" />
    </g>
    <g
       transform="matrix(1.1539793014526367 0 0 1.1539793014526367 141 96)"
       id="L1_5">
      <path
         d="M5.684,7.912l13.998-6.774c0,0,10.174-3.035,10.623,4.841c0,0,1.476,8.599-7.606,9.191   c-7.27,0.474-14.513-4.119-17.113-5.971C5.133,8.877,5.189,8.151,5.684,7.912z"
         fill="#e06b65"
         id="path97" />
      <path
         d="M23.027,5.489c-0.034,0.551-0.479,0.969-0.994,0.933c-0.515-0.036-0.906-0.512-0.872-1.063   c0.034-0.551,0.479-0.969,0.994-0.933C22.67,4.462,23.061,4.938,23.027,5.489z"
         fill="#4c312c"
         id="path99" />
      <path
         d="M12.522,9.765c-0.023,0-0.047-0.001-0.07-0.002C5.62,9.286,0.481,5.41,0.753,0.938   c0.034-0.551,0.516-0.96,1.059-0.938c0.552,0.033,0.971,0.508,0.938,1.059c-0.197,3.25,4.31,6.321,9.842,6.707   c0.551,0.039,0.967,0.517,0.929,1.067C13.482,9.361,13.043,9.765,12.522,9.765z"
         fill="#ed8680"
         id="path101" />
      <path
         d="M40.848,3.715L29.58,1.938c-0.474-0.101-0.943-0.063-1.385,0.064   c0.955,0.826,1.627,2.083,1.735,3.976c0,0,0.584,3.419-1.26,6.094c-0.758,1.499-2.183,2.89-4.855,3.398   c0.084,0.088,0.166,0.178,0.26,0.256l3.373,4.123c1.11,1.357,2.894,2.016,4.602,1.624c8.898-2.043,11.057-13.283,11.057-13.283   C43.834,6.271,42.747,4.118,40.848,3.715z"
         fill="#d3605e"
         id="path103" />
      <path
         d="M49.153,14.196L42.939,9.26c-0.074,0.159-0.155,0.329-0.244,0.509   c-0.897,2.95-3.442,9.194-9.3,11.304l1.223,4.01c0.896,1.722,3.105,2.018,4.428,0.594l10.49-6.902   C50.786,17.43,50.602,15.228,49.153,14.196z"
         fill="#e06b65"
         id="path105" />
      <path
         d="M51.054,27.196l-3.594-7.055l-8.412,5.535c-0.978,1.053-2.439,1.16-3.497,0.451l-0.537,2.25   c-0.095,1.681,1.364,2.918,2.923,2.481l11.432-0.115C50.841,30.33,51.651,28.624,51.054,27.196z"
         fill="#ea847d"
         id="path107" />
      <path
         d="M48.104,30.755l-9.97,0.1l-1.967,2.281c-0.709,1.198-0.145,2.691,1.131,2.993l8.508,2.014   c1.205,0.285,2.433-0.645,2.553-1.934l-0.185-4.702C48.199,31.245,48.172,30.991,48.104,30.755z"
         fill="#f2968f"
         id="path109" />
      <path
         d="M24.368,23.196c-0.553,0-1-0.447-1-1s0.447-1,1-1c2.206,0,4-1.794,4-4c0-0.553,0.447-1,1-1   s1,0.447,1,1C30.368,20.505,27.677,23.196,24.368,23.196z"
         fill="#ed7161"
         id="path111" />
      <path
         d="M26.368,27.196c-0.553,0-1-0.447-1-1s0.447-1,1-1c3.309,0,6-2.691,6-6c0-0.553,0.447-1,1-1   s1,0.447,1,1C34.368,23.607,30.779,27.196,26.368,27.196z"
         fill="#ed7161"
         id="path113" />
      <path
         d="M45.807,38.145l-8.508-2.014c-0.109-0.026-0.206-0.072-0.305-0.114   c-2.087,0.718-4.668,1.327-6.525,1.43c-1.683,0.093-2.778,2.197-1.624,3.043c0.967,0.709,4.609-0.22,6.171-0.114   c1.053,0.072,1.562,1.011,1.02,2.004c-0.974,1.784-4.041,6.241-3.291,8.754c0.412,1.381,2.7,1.027,3.399-0.538   c1.175-2.627,4.556-6.54,8.008-10.626c0.16-0.189,0.934-0.998,1.683-1.822C45.825,38.146,45.816,38.147,45.807,38.145z"
         fill="#f4a7a4"
         id="path115" />
    </g>
    <g
       transform="matrix(1.0712181329727173 0 0 1.0712181329727173 129 237)"
       id="L1_6">
      <g
         id="g122">
        <path
           d="M14.605,34.5c0-11.322,9.178-20.5,20.5-20.5c0.244,0,0.48,0.028,0.721,0.036    C33.735,6.512,27.028,1,19.06,1C9.42,1,1.605,9.059,1.605,19c0,8.386,5.569,15.412,13.096,17.411    C14.643,35.781,14.605,35.145,14.605,34.5z"
           fill="#6a3311"
           id="path118" />
        <path
           d="M15.83,37.745l-1.385-0.367C6.296,35.214,0.605,27.656,0.605,19c0-10.477,8.279-19,18.455-19    c8.186,0,15.477,5.662,17.73,13.769l0.365,1.312l-1.36-0.045c-0.113-0.003-0.226-0.011-0.338-0.019    C35.339,15.009,35.223,15,35.105,15c-10.752,0-19.5,8.748-19.5,19.5c0,0.556,0.03,1.15,0.092,1.818L15.83,37.745z M19.06,2    C9.986,2,2.605,9.626,2.605,19c0,7.263,4.461,13.658,11.008,16.023c-0.005-0.178-0.008-0.352-0.008-0.523    c0-11.635,9.291-21.142,20.842-21.49C32.058,6.464,25.908,2,19.06,2z"
           fill="#6a3311"
           id="path120" />
      </g>
      <g
         id="g128">
        <path
           d="M14.605,34.5c0-11.322,9.178-20.5,20.5-20.5c0.244,0,0.48,0.028,0.721,0.036    C33.735,6.512,27.028,1,19.06,1C9.42,1,1.605,9.059,1.605,19c0,8.386,5.569,15.412,13.096,17.411    C14.643,35.781,14.605,35.145,14.605,34.5z"
           fill="#6a3311"
           id="path124" />
        <path
           d="M15.83,37.745l-1.385-0.367C6.296,35.214,0.605,27.656,0.605,19c0-10.477,8.279-19,18.455-19    c8.186,0,15.477,5.662,17.73,13.769l0.365,1.312l-1.36-0.045c-0.113-0.003-0.226-0.011-0.338-0.019    C35.339,15.009,35.223,15,35.105,15c-10.752,0-19.5,8.748-19.5,19.5c0,0.556,0.03,1.15,0.092,1.818L15.83,37.745z M19.06,2    C9.986,2,2.605,9.626,2.605,19c0,7.263,4.461,13.658,11.008,16.023c-0.005-0.178-0.008-0.352-0.008-0.523    c0-11.635,9.291-21.142,20.842-21.49C32.058,6.464,25.908,2,19.06,2z"
           fill="#6a3311"
           id="path126" />
      </g>
      <path
         d="M16.099,26.839c0.616-1.527,1.415-2.958,2.363-4.277C18.05,21.088,16.711,20,15.105,20   c-1.933,0-3.5,1.567-3.5,3.5s1.567,3.5,3.5,3.5C15.453,27,15.782,26.934,16.099,26.839z"
         fill="#8c572c"
         id="path130" />
      <g
         id="g136">
        <path
           d="M2.605,16c0,0,1.75,1.563,5,2"
           fill="#a46f3e"
           id="path132" />
        <path
           d="M7.606,19c-0.044,0-0.09-0.003-0.135-0.009c-3.514-0.473-5.452-2.173-5.533-2.245    c-0.412-0.368-0.448-1-0.08-1.412c0.366-0.412,0.995-0.447,1.409-0.083c0.042,0.036,1.625,1.375,4.471,1.758    c0.547,0.074,0.932,0.577,0.858,1.125C8.528,18.636,8.099,19,7.606,19z"
           fill="#a46f3e"
           id="path134" />
      </g>
      <g
         id="g142">
        <path
           d="M7.605,14c0,1.658-1.342,3-3,3"
           fill="#a46f3e"
           id="path138" />
        <path
           d="M4.605,18c-0.552,0-1-0.447-1-1s0.448-1,1-1c1.103,0,2-0.897,2-2c0-0.553,0.448-1,1-1s1,0.447,1,1    C8.605,16.206,6.811,18,4.605,18z"
           fill="#a46f3e"
           id="path140" />
      </g>
      <circle
         cx="16"
         cy="9"
         r="3"
         fill="#4c312c"
         id="circle144" />
      <g
         id="g150">
        <path
           d="M28.605,4c0,0,0.312,4.5-3,6c0,0-2.063,0.438-2,2"
           fill="#a46f3e"
           id="path146" />
        <path
           d="M23.604,13c-0.534,0-0.977-0.422-0.999-0.96c-0.073-1.829,1.59-2.724,2.671-2.99    c2.539-1.232,2.333-4.945,2.331-4.983c-0.035-0.55,0.381-1.026,0.931-1.063c0.549-0.038,1.026,0.377,1.064,0.927    c0.015,0.212,0.316,5.214-3.585,6.98l-0.205,0.067c-0.007,0.001-1.235,0.308-1.208,0.981c0.022,0.552-0.407,1.018-0.959,1.039    C23.631,13,23.618,13,23.604,13z M25.605,10h0.01H25.605z"
           fill="#a46f3e"
           id="path148" />
      </g>
      <g
         id="g156">
        <path
           d="M27.605,8c0,0-3.625-1.25-4-1"
           fill="#a46f3e"
           id="path152" />
        <path
           d="M27.605,9c-0.108,0-0.218-0.018-0.326-0.055c-1.304-0.449-2.938-0.93-3.431-0.975    c-0.398,0.1-0.833-0.055-1.075-0.416c-0.306-0.46-0.182-1.08,0.277-1.387c0.369-0.246,0.787-0.525,4.881,0.887    c0.522,0.18,0.799,0.749,0.619,1.271C28.408,8.74,28.02,9,27.605,9z M24.16,7.832c0,0-0.001,0.001-0.001,0.001    C24.159,7.833,24.159,7.832,24.16,7.832z"
           fill="#a46f3e"
           id="path154" />
      </g>
      <g
         id="g162">
        <path
           d="M52.489,42.267c-2.305-0.929-3.421-3.55-2.493-5.855c0.444-1.102,1.281-1.922,2.279-2.387    c-1.706-1.026-2.472-3.157-1.704-5.063c0.17-0.423,0.416-0.788,0.696-1.117c-0.443-0.063-0.885-0.173-1.319-0.347    c-2.882-1.161-4.277-4.438-3.116-7.319c0.26-0.645,0.63-1.21,1.073-1.694c-1.076-0.859-2.254-1.623-3.531-2.27    c-10.098-5.119-22.435-1.083-27.554,9.016s-1.083,22.435,9.016,27.554s22.435,1.083,27.554-9.016    c0.201-0.396,0.362-0.8,0.535-1.202C53.444,42.541,52.96,42.457,52.489,42.267z"
           fill="#a46f3e"
           id="path158" />
        <path
           d="M35.083,56.011c-3.332,0-6.641-0.783-9.699-2.334c-5.123-2.597-8.927-7.032-10.713-12.49    c-1.786-5.458-1.339-11.285,1.257-16.407s7.033-8.927,12.491-10.713c5.458-1.786,11.285-1.341,16.407,1.257    c1.31,0.663,2.555,1.464,3.703,2.379l0.836,0.668l-0.723,0.789c-0.382,0.417-0.679,0.886-0.883,1.394    c-0.952,2.365,0.197,5.064,2.563,6.018c0.336,0.136,0.69,0.229,1.084,0.284l1.797,0.254l-1.174,1.384    c-0.244,0.287-0.418,0.563-0.53,0.843c-0.574,1.426-0.03,3.037,1.292,3.833l1.612,0.97l-1.706,0.793    c-0.814,0.379-1.444,1.038-1.773,1.854c-0.35,0.867-0.34,1.818,0.026,2.679c0.366,0.859,1.045,1.525,1.913,1.875l0,0    c0.325,0.132,0.69,0.207,1.116,0.23l1.427,0.078l-0.667,1.561c-0.144,0.339-0.287,0.679-0.456,1.012    c-2.598,5.123-7.033,8.928-12.491,10.714C39.592,55.653,37.332,56.011,35.083,56.011z M35.125,14.99    c-2.041,0-4.089,0.323-6.084,0.977c-4.95,1.62-8.974,5.071-11.329,9.717c-2.355,4.646-2.76,9.931-1.141,14.881    s5.07,8.974,9.716,11.329c4.646,2.354,9.93,2.76,14.881,1.14c4.946-1.619,8.967-5.064,11.322-9.705    c-0.128-0.04-0.254-0.084-0.377-0.134c-1.363-0.55-2.43-1.596-3.006-2.947c-0.575-1.352-0.59-2.847-0.041-4.21    c0.333-0.823,0.856-1.544,1.524-2.112c-1.29-1.42-1.699-3.475-0.949-5.337c0.016-0.039,0.032-0.077,0.049-0.116    c-0.039-0.015-0.079-0.03-0.118-0.046c-3.388-1.365-5.034-5.232-3.67-8.62c0.16-0.396,0.357-0.775,0.593-1.134    c-0.817-0.587-1.68-1.111-2.575-1.565C41.148,15.701,38.146,14.99,35.125,14.99z"
           fill="#a46f3e"
           id="path160" />
      </g>
      <circle
         cx="33"
         cy="25"
         r="3"
         fill="#6a3311"
         id="circle164" />
      <circle
         cx="27"
         cy="38"
         r="3"
         fill="#4c312c"
         id="circle166" />
      <circle
         cx="40"
         cy="41"
         r="3"
         fill="#8c572c"
         id="circle168" />
      <path
         d="M40.137,55.429c-0.152,0-0.306-0.034-0.451-0.108c-0.493-0.249-0.689-0.852-0.44-1.344   c0.427-0.842-0.622-2.557-2.664-3.593c-0.493-0.25-0.689-0.852-0.44-1.344s0.851-0.691,1.344-0.439   c3.001,1.521,4.557,4.28,3.543,6.28C40.854,55.229,40.502,55.429,40.137,55.429z"
         fill="#8c572c"
         id="path170" />
      <path
         d="M40.774,20.997c-0.152,0-0.306-0.034-0.451-0.108c-2.458-1.246-3.445-4.262-2.199-6.721   c0.25-0.492,0.851-0.692,1.344-0.439c0.493,0.249,0.689,0.851,0.44,1.344c-0.748,1.476-0.156,3.285,1.319,4.033   c0.493,0.249,0.689,0.852,0.44,1.344C41.491,20.797,41.139,20.997,40.774,20.997z"
         fill="#4c312c"
         id="path172" />
      <path
         d="M22.385,30.734c-0.152,0-0.306-0.034-0.451-0.108c-0.996-0.505-1.69-1.372-2.003-2.361   c-0.276,0.153-0.57,0.281-0.876,0.382c-1.27,0.414-2.624,0.311-3.816-0.294c-0.493-0.25-0.689-0.852-0.44-1.344   c0.25-0.492,0.851-0.692,1.344-0.439c0.716,0.363,1.528,0.426,2.29,0.176c0.761-0.249,1.38-0.779,1.742-1.495   c0.25-0.492,0.851-0.692,1.344-0.439c0.493,0.249,0.689,0.852,0.44,1.344c-0.499,0.983-0.104,2.189,0.88,2.688   c0.493,0.249,0.689,0.852,0.44,1.344C23.102,30.534,22.75,30.734,22.385,30.734z"
         fill="#8c572c"
         id="path174" />
      <path
         d="M23.138,50.932c-0.715,0-1.479-0.194-2.27-0.667c-0.474-0.284-0.628-0.898-0.344-1.372   c0.283-0.473,0.897-0.627,1.372-0.345c2.205,1.322,3.949-1.329,4.022-1.442c1.646-3.09,5.292-2.686,5.447-2.662   c0.548,0.067,0.938,0.566,0.871,1.114c-0.067,0.547-0.577,0.939-1.11,0.871c-0.114-0.016-2.453-0.246-3.485,1.688   C26.881,49.303,25.211,50.932,23.138,50.932z"
         fill="#8c572c"
         id="path176" />
    </g>
    <g
       transform="matrix(1.0945110321044922 0 0 1.0945110321044922 30 59)"
       id="L1_8">
      <path
         d="M11.217,19.913c-0.335,0-0.663-0.169-0.852-0.476c-0.614-0.995-1.761-2.146-3.078-2.104   c-0.56-0.03-1.014-0.418-1.03-0.969c-0.017-0.553,0.417-1.014,0.969-1.031c2.107-0.063,3.904,1.534,4.841,3.055   c0.29,0.47,0.144,1.086-0.326,1.376C11.578,19.865,11.396,19.913,11.217,19.913z"
         fill="#436b1c"
         id="path179" />
      <path
         d="M31.684,6.597c-0.134-1.948-1.753-3.488-3.735-3.488c-0.006,0-0.011,0.001-0.017,0.001    c0.035-0.295,0.015-0.607-0.08-0.932c-0.268-0.914-1.072-1.616-2.018-1.729c-0.776-0.092-1.488,0.186-1.987,0.679    c-0.475-0.429-1.097-0.697-1.787-0.697c-1.479,0-2.677,1.199-2.677,2.677c0,0.005,0.001,0.009,0.001,0.014    c-1.797,0.136-3.214,1.635-3.214,3.467c0,0.28,0.037,0.551,0.099,0.812c-2.139,0.089-3.847,1.847-3.847,4.008    c0,0.732,0.199,1.416,0.541,2.007c-0.657,0.54-1.077,1.359-1.077,2.276c0,0.838,0.355,1.589,0.917,2.124    c2.412-1.971,4.946,4.621,7.93,9.884c0.991,1.748,11.698-0.114,12.551,0.972c0.972-0.874,1.6-16.094,1.627-17.431    C34.953,9.096,33.591,7.266,31.684,6.597z"
         fill="#88c057"
         id="path181" />
      <path
         d="M33.053,26.533l0.713-0.427c1.32-0.792,2.968-0.792,4.287,0l0.713,0.427   c1.32,0.792,2.968,0.792,4.287,0l2.015-0.896c0.296-0.826,0.502-1.424,0.584-1.689c1.88-6.047,3.091-12.414,3.256-18.765   c0.066-2.554-2.046-6.537-5.555-4.727c-3.449,1.778-5.919,8.597-7.655,11.835c-2.466,4.601-4.416,9.605-5.805,14.704   C30.951,27.262,32.089,27.111,33.053,26.533z"
         fill="#eeaf4b"
         id="path183" />
      <path
         d="M7.055,25.506L8.4,26.313c1.545,0.927,3.475,0.927,5.02,0l0.346-0.208   c1.32-0.792,2.968-0.792,4.287,0l0.713,0.427c0.775,0.465,1.663,0.649,2.531,0.568c0.64-2.067,0.425-4.651-0.567-6.4   c-3.336-5.885-6.111-4.686-8.781-2.131c-0.512,0.49-1.138,0.849-1.82,1.044c-2.928,0.837-5.089,2.206-3.86,5.934   C6.486,25.389,6.788,25.346,7.055,25.506z"
         fill="#ed3f32"
         id="path185" />
      <path
         d="M35.592,24.356c-0.106,0-0.215-0.017-0.321-0.053c-0.523-0.178-0.803-0.746-0.625-1.269   c0.667-1.962,2.809-3.012,4.768-2.352c0.919,0.313,1.92-0.181,2.232-1.1c0.177-0.523,0.743-0.805,1.269-0.626   c0.523,0.178,0.803,0.746,0.625,1.269c-0.666,1.963-2.806,3.017-4.768,2.352c-0.918-0.312-1.919,0.183-2.232,1.1   C36.397,24.095,36.008,24.356,35.592,24.356z"
         fill="#a46f3e"
         id="path187" />
      <path
         d="M37.957,17.389c-0.106,0-0.215-0.017-0.321-0.053c-0.523-0.178-0.803-0.746-0.625-1.269   c0.323-0.951,0.997-1.72,1.897-2.164c0.9-0.444,1.919-0.511,2.871-0.188c0.921,0.314,1.92-0.181,2.232-1.101   c0.177-0.524,0.745-0.805,1.268-0.626c0.523,0.178,0.803,0.746,0.625,1.269c-0.666,1.964-2.806,3.016-4.768,2.353   c-0.445-0.152-0.923-0.121-1.344,0.087s-0.736,0.567-0.888,1.013C38.763,17.127,38.374,17.389,37.957,17.389z"
         fill="#a46f3e"
         id="path189" />
      <path
         d="M40.323,10.421c-0.106,0-0.215-0.017-0.322-0.053c-0.523-0.178-0.803-0.746-0.625-1.269   c0.584-1.722,2.463-2.646,4.185-2.064c0.33,0.112,0.682,0.09,0.993-0.063c0.311-0.153,0.544-0.419,0.656-0.748   c0.177-0.523,0.744-0.804,1.269-0.626c0.523,0.178,0.803,0.746,0.625,1.269c-0.284,0.835-0.875,1.51-1.665,1.899   c-0.791,0.39-1.686,0.447-2.521,0.164c-0.678-0.231-1.418,0.134-1.648,0.813C41.128,10.159,40.739,10.421,40.323,10.421z"
         fill="#a46f3e"
         id="path191" />
      <path
         d="M23.37,14.095c-0.945,1.257-2.436,2.745-1.862,5.373l1.544,7.065c0,0,0.001,0,0.001,0l0.713-0.427    c1.32-0.792,2.968-0.792,4.287,0l0.713,0.427c0.58,0.348,1.127,0.463,1.127,0.463c1.042-3.823,2.399-7.593,4.052-11.179    c-0.774-1.936-2.427-2.584-3.627-3.247c-0.007-0.004-0.014-0.008-0.02-0.011c-0.759-0.435-0.806-1.474-0.235-2.136    c0.225-0.261,0.329-0.62,0.251-0.98l-0.121-0.552c-0.133-0.608-0.739-0.996-1.346-0.863L22.77,9.354    c-0.608,0.133-0.996,0.739-0.863,1.346l0.121,0.552c0.08,0.368,0.334,0.653,0.656,0.792c0.739,0.319,1.19,1.144,0.812,1.855    C23.46,13.966,23.418,14.031,23.37,14.095z"
         fill="#dae7ef"
         id="path193" />
      <path
         d="M29.746,10.899l-6.879,1.503c-0.759,0.166-1.517-0.32-1.683-1.079l-0.099-0.452   c-0.166-0.759,0.32-1.517,1.079-1.683l6.879-1.503c0.759-0.166,1.517,0.32,1.683,1.079l0.099,0.452   C30.991,9.976,30.505,10.733,29.746,10.899z"
         fill="#ffffff"
         id="path195" />
      <path
         d="M46.816,25.332l-1.745,25.029c-0.128,2.499-2.191,4.459-4.693,4.459H12.307   c-2.502,0-4.565-1.96-4.693-4.459L5.911,26.153c-0.029-0.569,0.588-0.94,1.077-0.647l1.345,0.807c1.545,0.927,3.475,0.927,5.02,0   l0.346-0.208c1.32-0.792,2.968-0.792,4.287,0l0.713,0.428c1.32,0.792,2.968,0.792,4.287,0l0.713-0.428   c1.32-0.792,2.968-0.792,4.287,0l0.713,0.428c1.32,0.792,2.968,0.792,4.287,0l0.713-0.428c1.32-0.792,2.968-0.792,4.287,0   l0.713,0.428c1.32,0.792,2.968,0.792,4.287,0l3.387-1.505C46.588,24.932,46.828,25.097,46.816,25.332z"
         fill="#fbd490"
         id="path197" />
      <path
         d="M17.91,42h-7c-0.552,0-1-0.447-1-1s0.448-1,1-1h7c0.552,0,1,0.447,1,1S18.462,42,17.91,42z"
         fill="#e0b877"
         id="path199" />
      <path
         d="M19.91,46h-9c-0.552,0-1-0.447-1-1s0.448-1,1-1h9c0.552,0,1,0.447,1,1S20.462,46,19.91,46z"
         fill="#e0b877"
         id="path201" />
      <path
         d="M21.91,50h-11c-0.552,0-1-0.447-1-1s0.448-1,1-1h11c0.552,0,1,0.447,1,1S22.462,50,21.91,50z"
         fill="#e0b877"
         id="path203" />
      <path
         d="M27.91,50h-2c-0.552,0-1-0.447-1-1s0.448-1,1-1h2c0.552,0,1,0.447,1,1S28.462,50,27.91,50z"
         fill="#e0b877"
         id="path205" />
    </g>
  </defs>
  <g
     fi:class="KUsePattern"
     id="g231">
    <pattern
       id="pattern_L1_0"
       width="350"
       height="350"
       patternUnits="userSpaceOnUse">
      <use
         xlink:href="#L1_0"
         x="-350"
         y="-350"
         id="use210" />
      <use
         xlink:href="#L1_0"
         x="0"
         y="-350"
         id="use212" />
      <use
         xlink:href="#L1_0"
         x="350"
         y="-350"
         id="use214" />
      <use
         xlink:href="#L1_0"
         x="-350"
         y="0"
         id="use216" />
      <use
         xlink:href="#L1_0"
         x="0"
         y="0"
         id="use218" />
      <use
         xlink:href="#L1_0"
         x="350"
         y="0"
         id="use220" />
      <use
         xlink:href="#L1_0"
         x="-350"
         y="350"
         id="use222" />
      <use
         xlink:href="#L1_0"
         x="0"
         y="350"
         id="use224" />
      <use
         xlink:href="#L1_0"
         x="350"
         y="350"
         id="use226" />
    </pattern>
    <rect
       x="0"
       y="0"
       width="100%"
       height="100%"
       fill="url(#pattern_L1_0)"
       id="rect229" />
  </g>
  <g
     fi:class="KUsePattern"
     id="g254">
    <pattern
       id="pattern_L1_1"
       width="350"
       height="350"
       patternUnits="userSpaceOnUse">
      <use
         xlink:href="#L1_1"
         x="-350"
         y="-350"
         id="use233" />
      <use
         xlink:href="#L1_1"
         x="0"
         y="-350"
         id="use235" />
      <use
         xlink:href="#L1_1"
         x="350"
         y="-350"
         id="use237" />
      <use
         xlink:href="#L1_1"
         x="-350"
         y="0"
         id="use239" />
      <use
         xlink:href="#L1_1"
         x="0"
         y="0"
         id="use241" />
      <use
         xlink:href="#L1_1"
         x="350"
         y="0"
         id="use243" />
      <use
         xlink:href="#L1_1"
         x="-350"
         y="350"
         id="use245" />
      <use
         xlink:href="#L1_1"
         x="0"
         y="350"
         id="use247" />
      <use
         xlink:href="#L1_1"
         x="350"
         y="350"
         id="use249" />
    </pattern>
    <rect
       x="0"
       y="0"
       width="100%"
       height="100%"
       fill="url(#pattern_L1_1)"
       id="rect252" />
  </g>
  <g
     fi:class="KUsePattern"
     id="g277">
    <pattern
       id="pattern_L1_2"
       width="350"
       height="350"
       patternUnits="userSpaceOnUse">
      <use
         xlink:href="#L1_2"
         x="-350"
         y="-350"
         id="use256" />
      <use
         xlink:href="#L1_2"
         x="0"
         y="-350"
         id="use258" />
      <use
         xlink:href="#L1_2"
         x="350"
         y="-350"
         id="use260" />
      <use
         xlink:href="#L1_2"
         x="-350"
         y="0"
         id="use262" />
      <use
         xlink:href="#L1_2"
         x="0"
         y="0"
         id="use264" />
      <use
         xlink:href="#L1_2"
         x="350"
         y="0"
         id="use266" />
      <use
         xlink:href="#L1_2"
         x="-350"
         y="350"
         id="use268" />
      <use
         xlink:href="#L1_2"
         x="0"
         y="350"
         id="use270" />
      <use
         xlink:href="#L1_2"
         x="350"
         y="350"
         id="use272" />
    </pattern>
    <rect
       x="0"
       y="0"
       width="100%"
       height="100%"
       fill="url(#pattern_L1_2)"
       id="rect275" />
  </g>
  <g
     fi:class="KUsePattern"
     id="g300">
    <pattern
       id="pattern_L1_3"
       width="350"
       height="350"
       patternUnits="userSpaceOnUse">
      <use
         xlink:href="#L1_3"
         x="-350"
         y="-350"
         id="use279" />
      <use
         xlink:href="#L1_3"
         x="0"
         y="-350"
         id="use281" />
      <use
         xlink:href="#L1_3"
         x="350"
         y="-350"
         id="use283" />
      <use
         xlink:href="#L1_3"
         x="-350"
         y="0"
         id="use285" />
      <use
         xlink:href="#L1_3"
         x="0"
         y="0"
         id="use287" />
      <use
         xlink:href="#L1_3"
         x="350"
         y="0"
         id="use289" />
      <use
         xlink:href="#L1_3"
         x="-350"
         y="350"
         id="use291" />
      <use
         xlink:href="#L1_3"
         x="0"
         y="350"
         id="use293" />
      <use
         xlink:href="#L1_3"
         x="350"
         y="350"
         id="use295" />
    </pattern>
    <rect
       x="0"
       y="0"
       width="100%"
       height="100%"
       fill="url(#pattern_L1_3)"
       id="rect298" />
  </g>
  <g
     fi:class="KUsePattern"
     id="g323">
    <pattern
       id="pattern_L1_4"
       width="350"
       height="350"
       patternUnits="userSpaceOnUse">
      <use
         xlink:href="#L1_4"
         x="-350"
         y="-350"
         id="use302" />
      <use
         xlink:href="#L1_4"
         x="0"
         y="-350"
         id="use304" />
      <use
         xlink:href="#L1_4"
         x="350"
         y="-350"
         id="use306" />
      <use
         xlink:href="#L1_4"
         x="-350"
         y="0"
         id="use308" />
      <use
         xlink:href="#L1_4"
         x="0"
         y="0"
         id="use310" />
      <use
         xlink:href="#L1_4"
         x="350"
         y="0"
         id="use312" />
      <use
         xlink:href="#L1_4"
         x="-350"
         y="350"
         id="use314" />
      <use
         xlink:href="#L1_4"
         x="0"
         y="350"
         id="use316" />
      <use
         xlink:href="#L1_4"
         x="350"
         y="350"
         id="use318" />
    </pattern>
    <rect
       x="0"
       y="0"
       width="100%"
       height="100%"
       fill="url(#pattern_L1_4)"
       id="rect321" />
  </g>
  <g
     fi:class="KUsePattern"
     id="g346">
    <pattern
       id="pattern_L1_5"
       width="350"
       height="350"
       patternUnits="userSpaceOnUse">
      <use
         xlink:href="#L1_5"
         x="-350"
         y="-350"
         id="use325" />
      <use
         xlink:href="#L1_5"
         x="0"
         y="-350"
         id="use327" />
      <use
         xlink:href="#L1_5"
         x="350"
         y="-350"
         id="use329" />
      <use
         xlink:href="#L1_5"
         x="-350"
         y="0"
         id="use331" />
      <use
         xlink:href="#L1_5"
         x="0"
         y="0"
         id="use333" />
      <use
         xlink:href="#L1_5"
         x="350"
         y="0"
         id="use335" />
      <use
         xlink:href="#L1_5"
         x="-350"
         y="350"
         id="use337" />
      <use
         xlink:href="#L1_5"
         x="0"
         y="350"
         id="use339" />
      <use
         xlink:href="#L1_5"
         x="350"
         y="350"
         id="use341" />
    </pattern>
    <rect
       x="0"
       y="0"
       width="100%"
       height="100%"
       fill="url(#pattern_L1_5)"
       id="rect344" />
  </g>
  <g
     fi:class="KUsePattern"
     id="g369">
    <pattern
       id="pattern_L1_6"
       width="350"
       height="350"
       patternUnits="userSpaceOnUse">
      <use
         xlink:href="#L1_6"
         x="-350"
         y="-350"
         id="use348" />
      <use
         xlink:href="#L1_6"
         x="0"
         y="-350"
         id="use350" />
      <use
         xlink:href="#L1_6"
         x="350"
         y="-350"
         id="use352" />
      <use
         xlink:href="#L1_6"
         x="-350"
         y="0"
         id="use354" />
      <use
         xlink:href="#L1_6"
         x="0"
         y="0"
         id="use356" />
      <use
         xlink:href="#L1_6"
         x="350"
         y="0"
         id="use358" />
      <use
         xlink:href="#L1_6"
         x="-350"
         y="350"
         id="use360" />
      <use
         xlink:href="#L1_6"
         x="0"
         y="350"
         id="use362" />
      <use
         xlink:href="#L1_6"
         x="350"
         y="350"
         id="use364" />
    </pattern>
    <rect
       x="0"
       y="0"
       width="100%"
       height="100%"
       fill="url(#pattern_L1_6)"
       id="rect367" />
  </g>
  <g
     fi:class="KUsePattern"
     id="g392">
    <pattern
       id="pattern_L1_8"
       width="350"
       height="350"
       patternUnits="userSpaceOnUse">
      <use
         xlink:href="#L1_8"
         x="-350"
         y="-350"
         id="use371" />
      <use
         xlink:href="#L1_8"
         x="0"
         y="-350"
         id="use373" />
      <use
         xlink:href="#L1_8"
         x="350"
         y="-350"
         id="use375" />
      <use
         xlink:href="#L1_8"
         x="-350"
         y="0"
         id="use377" />
      <use
         xlink:href="#L1_8"
         x="0"
         y="0"
         id="use379" />
      <use
         xlink:href="#L1_8"
         x="350"
         y="0"
         id="use381" />
      <use
         xlink:href="#L1_8"
         x="-350"
         y="350"
         id="use383" />
      <use
         xlink:href="#L1_8"
         x="0"
         y="350"
         id="use385" />
      <use
         xlink:href="#L1_8"
         x="350"
         y="350"
         id="use387" />
    </pattern>
    <rect
       x="0"
       y="0"
       width="100%"
       height="100%"
       fill="url(#pattern_L1_8)"
       id="rect390" />
  </g>
</svg>
