<?xml version="1.0" encoding="UTF-8" standalone="no"?>
<svg
   width="9.1999998"
   height="53.43396"
   viewBox="0 0 9.2000001 53.43396"
   fill="none"
   version="1.1"
   id="svg9"
   xmlns="http://www.w3.org/2000/svg"
   xmlns:svg="http://www.w3.org/2000/svg">
  <defs
     id="defs13" />
  <mask
     id="mask0_577_398"
     maskUnits="userSpaceOnUse"
     x="0"
     y="0"
     width="20"
     height="71">
    <rect
       width="20"
       height="71"
       fill="#d9d9d9"
       id="rect2"
       x="0"
       y="0" />
  </mask>
  <g
     mask="url(#mask0_577_398)"
     id="g7"
     transform="translate(-5.28244,-7.27714)">
    <path
       d="m 9.85379,53.3462 c -1.25289,0 -2.328,-0.4487 -3.22534,-1.3461 -0.89734,-0.8973 -1.34601,-1.9724 -1.34601,-3.2253 0,-1.2529 0.44867,-2.328 1.34601,-3.2253 0.89734,-0.8974 1.97245,-1.346 3.22534,-1.346 1.25291,0 2.32801,0.4486 3.22531,1.346 0.8974,0.8973 1.346,1.9724 1.346,3.2253 0,0.8296 -0.2116,1.5915 -0.6349,2.2857 -0.4063,0.6941 -0.9566,1.2529 -1.6507,1.6761 -0.6773,0.4064 -1.4392,0.6096 -2.28571,0.6096 z m 0,-26.3107 c -1.25289,0 -2.328,-0.4487 -3.22534,-1.346 -0.89734,-0.8973 -1.34601,-1.9724 -1.34601,-3.2253 0,-1.2529 0.44867,-2.328 1.34601,-3.2254 0.89734,-0.8973 1.97245,-1.346 3.22534,-1.346 1.25291,0 2.32801,0.4487 3.22531,1.346 0.8974,0.8974 1.346,1.9725 1.346,3.2254 0,0.8296 -0.2116,1.5915 -0.6349,2.2856 -0.4063,0.6942 -0.9566,1.2529 -1.6507,1.6762 -0.6773,0.4063 -1.4392,0.6095 -2.28571,0.6095 z M 41.3285,60.7111 c -3.8264,0 -7.0856,-1.0413 -9.7776,-3.1238 -2.692,-2.0994 -4.7491,-5.1385 -6.1713,-9.1173 -1.4222,-3.9956 -2.1333,-8.821 -2.1333,-14.4759 0,-5.621 0.7111,-10.421 2.1333,-14.3997 1.4391,-3.9957 3.5047,-7.0433 6.1967,-9.1427 2.709,-2.11638 5.9597,-3.17456 9.7522,-3.17456 3.7926,0 7.0348,1.05818 9.7268,3.17456 2.709,2.0994 4.7746,5.147 6.1967,9.1427 1.4392,3.9787 2.1587,8.7787 2.1587,14.3997 0,5.6549 -0.7111,10.4803 -2.1333,14.4759 -1.4222,3.9788 -3.4793,7.0179 -6.1713,9.1173 -2.692,2.0825 -5.9512,3.1238 -9.7776,3.1238 z m 0,-5.5872 c 3.7926,0 6.7385,-1.8285 8.838,-5.4856 2.0994,-3.6571 3.1491,-8.8718 3.1491,-15.6442 0,-4.5036 -0.4825,-8.3385 -1.4476,-11.5045 -0.9481,-3.1661 -2.3195,-5.5788 -4.1142,-7.238 -1.7777,-1.6592 -3.9195,-2.4888 -6.4253,-2.4888 -3.7586,0 -6.6961,1.8539 -8.8125,5.5618 -2.1164,3.6909 -3.1746,8.9141 -3.1746,15.6695 0,4.5036 0.4741,8.33 1.4222,11.4792 0.9482,3.1491 2.3111,5.5449 4.0889,7.1871 1.7946,1.6423 3.9533,2.4635 6.476,2.4635 z"
       fill="#000000"
       id="path5" />
  </g>
</svg>
