<svg width="21" height="21" viewBox="0 0 21 21" fill="none" xmlns="http://www.w3.org/2000/svg">
<path d="M14.6512 12.8931H13.7253L13.3971 12.5766C14.5457 11.2404 15.2373 9.50572 15.2373 7.61864C15.2373 3.41081 11.8265 0 7.61864 0C3.41081 0 0 3.41081 0 7.61864C0 11.8265 3.41081 15.2373 7.61864 15.2373C9.50572 15.2373 11.2404 14.5457 12.5766 13.3971L12.8931 13.7253V14.6512L18.7536 20.5L20.5 18.7536L14.6512 12.8931V12.8931ZM7.61864 12.8931C4.70011 12.8931 2.3442 10.5372 2.3442 7.61864C2.3442 4.70011 4.70011 2.3442 7.61864 2.3442C10.5372 2.3442 12.8931 4.70011 12.8931 7.61864C12.8931 10.5372 10.5372 12.8931 7.61864 12.8931Z" fill="black"/>
</svg>
