<?xml version="1.0" encoding="UTF-8" standalone="no"?>
<svg
   height="40"
   width="40"
   version="1.1"
   id="svg260"
   sodipodi:docname="settings_FILL0_wght400_GRAD0_opsz48.svg"
   inkscape:version="1.2.1 (9c6d41e410, 2022-07-14)"
   xmlns:inkscape="http://www.inkscape.org/namespaces/inkscape"
   xmlns:sodipodi="http://sodipodi.sourceforge.net/DTD/sodipodi-0.dtd"
   xmlns="http://www.w3.org/2000/svg"
   xmlns:svg="http://www.w3.org/2000/svg">
  <defs
     id="defs264" />
  <sodipodi:namedview
     id="namedview262"
     pagecolor="#ffffff"
     bordercolor="#000000"
     borderopacity="0.25"
     inkscape:showpageshadow="2"
     inkscape:pageopacity="0.0"
     inkscape:pagecheckerboard="0"
     inkscape:deskcolor="#d1d1d1"
     showgrid="false"
     inkscape:zoom="16.291667"
     inkscape:cx="20.01023"
     inkscape:cy="20.01023"
     inkscape:window-width="1920"
     inkscape:window-height="1043"
     inkscape:window-x="0"
     inkscape:window-y="0"
     inkscape:window-maximized="1"
     inkscape:current-layer="svg260" />
  <path
     d="m 15.4,40 -1,-6.3 q -0.95,-0.35 -2,-0.95 -1.05,-0.6 -1.85,-1.25 L 4.65,34.2 0,26 5.4,22.05 Q 5.3,21.6 5.275,21.025 5.25,20.45 5.25,20 5.25,19.55 5.275,18.975 5.3,18.4 5.4,17.95 L 0,14 4.65,5.8 l 5.9,2.7 q 0.8,-0.65 1.85,-1.25 1.05,-0.6 2,-0.9 L 15.4,0 h 9.2 l 1,6.3 Q 26.55,6.65 27.625,7.225 28.7,7.8 29.45,8.5 L 35.35,5.8 40,14 34.6,17.85 q 0.1,0.5 0.125,1.075 0.025,0.575 0.025,1.075 0,0.5 -0.025,1.05 Q 34.7,21.6 34.6,22.1 l 5.4,3.9 -4.65,8.2 -5.9,-2.7 q -0.8,0.65 -1.825,1.275 Q 26.6,33.4 25.6,33.7 l -1,6.3 z M 20,26.5 q 2.7,0 4.6,-1.9 1.9,-1.9 1.9,-4.6 0,-2.7 -1.9,-4.6 -1.9,-1.9 -4.6,-1.9 -2.7,0 -4.6,1.9 -1.9,1.9 -1.9,4.6 0,2.7 1.9,4.6 1.9,1.9 4.6,1.9 z m 0,-3 q -1.45,0 -2.475,-1.025 Q 16.5,21.45 16.5,20 16.5,18.55 17.525,17.525 18.55,16.5 20,16.5 q 1.45,0 2.475,1.025 Q 23.5,18.55 23.5,20 q 0,1.45 -1.025,2.475 Q 21.45,23.5 20,23.5 Z M 20,20 Z m -2.2,17 h 4.4 l 0.7,-5.6 Q 24.55,31 26.025,30.15 27.5,29.3 28.7,28.1 l 5.3,2.3 2,-3.6 -4.7,-3.45 Q 31.5,22.5 31.625,21.675 31.75,20.85 31.75,20 q 0,-0.85 -0.1,-1.675 Q 31.55,17.5 31.3,16.65 L 36,13.2 34,9.6 28.7,11.9 Q 27.55,10.6 26.1,9.725 24.65,8.85 22.9,8.6 L 22.2,3 H 17.8 L 17.1,8.6 Q 15.4,8.95 13.925,9.8 12.45,10.65 11.3,11.9 L 6,9.6 4,13.2 8.7,16.65 Q 8.5,17.5 8.375,18.325 8.25,19.15 8.25,20 q 0,0.85 0.125,1.675 Q 8.5,22.5 8.7,23.35 L 4,26.8 l 2,3.6 5.3,-2.3 q 1.2,1.2 2.675,2.05 Q 15.45,31 17.1,31.4 Z"
     id="path258" />
</svg>
