<?xml version="1.0" encoding="UTF-8" standalone="no"?>
<svg
   width="18.154139"
   height="25.07"
   viewBox="0 0 18.154139 25.07"
   fill="none"
   version="1.1"
   id="svg4"
   sodipodi:docname="share.svg"
   inkscape:version="1.2.1 (9c6d41e410, 2022-07-14)"
   xmlns:inkscape="http://www.inkscape.org/namespaces/inkscape"
   xmlns:sodipodi="http://sodipodi.sourceforge.net/DTD/sodipodi-0.dtd"
   xmlns="http://www.w3.org/2000/svg"
   xmlns:svg="http://www.w3.org/2000/svg">
  <defs
     id="defs8" />
  <sodipodi:namedview
     id="namedview6"
     pagecolor="#ffffff"
     bordercolor="#000000"
     borderopacity="0.25"
     inkscape:showpageshadow="2"
     inkscape:pageopacity="0.0"
     inkscape:pagecheckerboard="0"
     inkscape:deskcolor="#d1d1d1"
     showgrid="false"
     inkscape:zoom="30.076923"
     inkscape:cx="9.0434783"
     inkscape:cy="13"
     inkscape:window-width="1920"
     inkscape:window-height="1043"
     inkscape:window-x="0"
     inkscape:window-y="0"
     inkscape:window-maximized="1"
     inkscape:current-layer="svg4" />
  <path
     d="m 1.701948,25.07 c -0.45385,0 -0.85097,-0.1709 -1.191364,-0.5128 C 0.170194,24.2153 0,23.8165 0,23.3607 V 8.85997 C 0,8.40415 0.170194,8.00531 0.510584,7.66344 0.850978,7.32158 1.248098,7.15065 1.701948,7.15065 h 4.79383 V 8.85997 H 1.701948 V 23.3607 h 14.75019 V 8.85997 h -4.8505 V 7.15065 h 4.8505 c 0.4539,0 0.851,0.17093 1.1914,0.51279 0.3404,0.34187 0.5106,0.74071 0.5106,1.19653 V 23.3607 c 0,0.4558 -0.1702,0.8546 -0.5106,1.1965 -0.3404,0.3419 -0.7375,0.5128 -1.1914,0.5128 z m 6.49578,-8.746 V 3.30468 l -2.4962,2.507 L 4.481798,4.58667 9.048698,0 l 4.56694,4.58667 -1.2198,1.22501 -2.4962,-2.507 V 16.324 Z"
     fill="#0f0f0f"
     id="path2" />
</svg>
