<?xml version="1.0" encoding="UTF-8" standalone="no"?>
<svg
   width="94.312988"
   height="91.992691"
   viewBox="0 0 94.312988 91.992691"
   fill="none"
   version="1.1"
   id="svg34"
   sodipodi:docname="timer.svg"
   inkscape:version="1.2.1 (9c6d41e410, 2022-07-14)"
   xmlns:inkscape="http://www.inkscape.org/namespaces/inkscape"
   xmlns:sodipodi="http://sodipodi.sourceforge.net/DTD/sodipodi-0.dtd"
   xmlns="http://www.w3.org/2000/svg"
   xmlns:svg="http://www.w3.org/2000/svg">
  <defs
     id="defs38" />
  <sodipodi:namedview
     id="namedview36"
     pagecolor="#ffffff"
     bordercolor="#000000"
     borderopacity="0.25"
     inkscape:showpageshadow="2"
     inkscape:pageopacity="0.0"
     inkscape:pagecheckerboard="0"
     inkscape:deskcolor="#d1d1d1"
     showgrid="false"
     inkscape:zoom="8.5"
     inkscape:cx="47.529412"
     inkscape:cy="46"
     inkscape:window-width="1920"
     inkscape:window-height="1043"
     inkscape:window-x="0"
     inkscape:window-y="0"
     inkscape:window-maximized="1"
     inkscape:current-layer="svg34" />
  <path
     d="m 39.703022,15.406119 c -13.8389,-3.2838 -21.4904,15.768 -22.0957,26.9665 -1.1633,21.5202 11.3212,44.4128 35.114,44.4128 22.3074,0 30.7735,-27.9882 26.2138,-46.3612 -2.8333,-11.4165 -11.0034,-22.9032 -23.0699,-25.1067 -15.4888,-2.8284 -26.0088,5.972 -37.6823,14.4353"
     stroke="white"
     stroke-width="4"
     stroke-linecap="round"
     id="path2"
     style="stroke:#2b2b2b;stroke-opacity:1" />
  <path
     d="m 23.762122,75.184019 c -1.6796,2.4473 -13.3691,17.6019 -2.7897,14.3467 4.4836,-1.3796 6.8511,-6.6674 10.7601,-7.9704"
     stroke="white"
     stroke-width="4"
     stroke-linecap="round"
     id="path4"
     style="stroke:#2b2b2b;stroke-opacity:1" />
  <path
     d="m 72.381622,75.981019 c 1.2259,0.3474 19.7832,6.5553 19.926,3.9852 0.2563,-4.6138 -9.6307,-9.7256 -12.7526,-11.9556"
     stroke="white"
     stroke-width="4"
     stroke-linecap="round"
     id="path6"
     style="stroke:#2b2b2b;stroke-opacity:1" />
  <path
     d="m 46.876222,45.693619 c 3.3699,14.1536 12.1296,-6.3845 -0.7971,0.797"
     stroke="white"
     stroke-width="4"
     stroke-linecap="round"
     id="path8"
     style="stroke:#2b2b2b;stroke-opacity:1" />
  <path
     d="m 8.2749617,30.548219 c -5.33298,-4.0547 -8.48631397,-13.4791 -4.42723,-19.5327 3.32499,-4.9587295 11.1533903,-6.6683895 16.7127903,-6.7125995 2.0985,-0.0167 5.387,0.717 6.1428,2.97117"
     stroke="white"
     stroke-width="4"
     stroke-linecap="round"
     id="path10"
     style="stroke:#2b2b2b;stroke-opacity:1" />
  <path
     d="m 8.8946017,27.399619 c -1.15692,1.2312 -2.44942,2.3484 -0.44225,0.9688 2.5094703,-1.7247 4.6769703,-4.6164 6.9101703,-6.7251 3.2861,-3.1028 6.5003,-6.1767 10.1442,-8.8338 1.5639,-1.1404 3.1601,-2.3302 4.2843,-3.8755295"
     stroke="white"
     stroke-width="4"
     stroke-linecap="round"
     id="path12"
     style="stroke:#2b2b2b;stroke-opacity:1" />
  <path
     d="m 82.207622,24.372719 c 3.1329,-7.6677 2.0415,-17.2003795 -6.1422,-20.9282495 -7.6053,-3.46439022 -14.0164,-0.40903 -19.2568,5.53143"
     stroke="white"
     stroke-width="4"
     stroke-linecap="round"
     id="path14"
     style="stroke:#2b2b2b;stroke-opacity:1" />
  <path
     d="m 56.808622,5.8460995 c 7.6376,5.1908195 13.6847,11.9211195 20.7913,17.6877195 1.7215,1.3968 4.1424,4.0076 6.2263,4.6982"
     stroke="white"
     stroke-width="4"
     stroke-linecap="round"
     id="path16"
     style="stroke:#2b2b2b;stroke-opacity:1" />
  <path
     d="m 39.703022,15.406119 c -13.8389,-3.2838 -21.4904,15.768 -22.0957,26.9665 -1.1633,21.5202 11.3212,44.4128 35.114,44.4128 22.3074,0 30.7735,-27.9882 26.2138,-46.3612 -2.8333,-11.4165 -11.0034,-22.9032 -23.0699,-25.1067 -15.4888,-2.8284 -26.0088,5.972 -37.6823,14.4353"
     stroke="white"
     stroke-width="4"
     stroke-linecap="round"
     id="path18"
     style="stroke:#2b2b2b;stroke-opacity:1" />
  <path
     d="m 23.762122,75.184019 c -1.6796,2.4473 -13.3691,17.6019 -2.7897,14.3467 4.4836,-1.3796 6.8511,-6.6674 10.7601,-7.9704"
     stroke="white"
     stroke-width="4"
     stroke-linecap="round"
     id="path20"
     style="stroke:#2b2b2b;stroke-opacity:1" />
  <path
     d="m 72.381622,75.981019 c 1.2259,0.3474 19.7832,6.5553 19.926,3.9852 0.2563,-4.6138 -9.6307,-9.7256 -12.7526,-11.9556"
     stroke="white"
     stroke-width="4"
     stroke-linecap="round"
     id="path22"
     style="stroke:#2b2b2b;stroke-opacity:1" />
  <path
     d="m 46.876222,45.693619 c 3.3699,14.1536 12.1296,-6.3845 -0.7971,0.797"
     stroke="white"
     stroke-width="4"
     stroke-linecap="round"
     id="path24"
     style="stroke:#2b2b2b;stroke-opacity:1" />
  <path
     d="m 8.2749617,30.548219 c -5.33298,-4.0547 -8.48631397,-13.4791 -4.42723,-19.5327 3.32499,-4.9587295 11.1533903,-6.6683895 16.7127903,-6.7125995 2.0985,-0.0167 5.387,0.717 6.1428,2.97117"
     stroke="white"
     stroke-width="4"
     stroke-linecap="round"
     id="path26"
     style="stroke:#2b2b2b;stroke-opacity:1" />
  <path
     d="m 8.8946017,27.399619 c -1.15692,1.2312 -2.44942,2.3484 -0.44225,0.9688 2.5094703,-1.7247 4.6769703,-4.6164 6.9101703,-6.7251 3.2861,-3.1028 6.5003,-6.1767 10.1442,-8.8338 1.5639,-1.1404 3.1601,-2.3302 4.2843,-3.8755295"
     stroke="white"
     stroke-width="4"
     stroke-linecap="round"
     id="path28"
     style="stroke:#2b2b2b;stroke-opacity:1" />
  <path
     d="m 82.207622,24.372719 c 3.1329,-7.6677 2.0415,-17.2003795 -6.1422,-20.9282495 -7.6053,-3.46439022 -14.0164,-0.40903 -19.2568,5.53143"
     stroke="white"
     stroke-width="4"
     stroke-linecap="round"
     id="path30"
     style="stroke:#2b2b2b;stroke-opacity:1" />
  <path
     d="m 56.808622,5.8460995 c 7.6376,5.1908195 13.6847,11.9211195 20.7913,17.6877195 1.7215,1.3968 4.1424,4.0076 6.2263,4.6982"
     stroke="white"
     stroke-width="4"
     stroke-linecap="round"
     id="path32"
     style="stroke:#2b2b2b;stroke-opacity:1" />
</svg>
